<svg width="60" height="16" viewBox="0 0 128 23" fill="none" xmlns="http://www.w3.org/2000/svg">
<path d="M23.6311 8.48683C23.4389 7.89533 22.9289 7.46683 22.3144 7.37708L16.0914 6.47258L13.3081 0.837828C12.7589 -0.276672 10.9356 -0.276672 10.3864 0.837828L7.60313 6.47258L1.39488 7.37708C0.780628 7.46658 0.270628 7.89683 0.0798781 8.48683C-0.112372 9.07833 0.0488781 9.72533 0.493878 10.1571L4.99463 14.5323L3.93388 20.7246C3.82963 21.3356 4.08063 21.9548 4.58238 22.3198C5.08588 22.6833 5.75063 22.7306 6.29988 22.4421L11.8466 19.5171L17.4099 22.4421C17.6479 22.5676 17.9086 22.6296 18.1676 22.6296C18.5049 22.6296 18.8421 22.5253 19.1291 22.3201C19.6311 21.9533 19.8819 21.3358 19.7776 20.7248L18.7169 14.5326L23.2176 10.1573C23.6621 9.72683 23.8234 9.07683 23.6311 8.48683Z" fill="#FFC13E"/>
<path d="M49.7034 8.48683C49.5111 7.89533 49.0011 7.46683 48.3866 7.37708L42.1636 6.47258L39.3804 0.837828C38.8311 -0.276672 37.0079 -0.276672 36.4586 0.837828L33.6754 6.47258L27.4669 7.37708C26.8526 7.46658 26.3426 7.89683 26.1519 8.48683C25.9596 9.07833 26.1209 9.72533 26.5659 10.1571L31.0666 14.5323L30.0059 20.7246C29.9016 21.3356 30.1526 21.9566 30.6544 22.3198C31.1564 22.6833 31.8244 22.7306 32.3719 22.4421L37.9186 19.5171L43.4819 22.4421C43.7199 22.5676 43.9806 22.6296 44.2396 22.6296C44.5769 22.6296 44.9141 22.5253 45.2011 22.3201C45.7031 21.9533 45.9539 21.3358 45.8496 20.7248L44.7889 14.5326L49.2896 10.1573C49.7344 9.72683 49.8956 9.07683 49.7034 8.48683Z" fill="#FFC13E"/>
<path d="M75.7756 8.48683C75.5833 7.89533 75.0733 7.46683 74.4588 7.37708L68.2356 6.47258L65.4523 0.837828C64.9031 -0.276672 63.0798 -0.276672 62.5306 0.837828L59.7473 6.47258L53.5389 7.37708C52.9246 7.46658 52.4146 7.89683 52.2238 8.48683C52.0316 9.07833 52.1928 9.72533 52.6378 10.1571L57.1386 14.5323L56.0778 20.7246C55.9736 21.3356 56.2246 21.9566 56.7263 22.3198C57.2283 22.6833 57.8963 22.7306 58.4438 22.4421L63.9908 19.5171L69.5541 22.4421C69.7921 22.5676 70.0528 22.6296 70.3118 22.6296C70.6491 22.6296 70.9863 22.5253 71.2733 22.3201C71.7753 21.9533 72.0261 21.3358 71.9218 20.7248L70.8611 14.5326L75.3618 10.1573C75.8066 9.72683 75.9678 9.07683 75.7756 8.48683Z" fill="#FFC13E"/>
<path d="M101.848 8.48462C101.656 7.89312 101.146 7.46462 100.531 7.37487L94.3081 6.47037L91.5249 0.835875C90.9756 -0.278625 89.1523 -0.278625 88.6031 0.835875L85.8199 6.47062L79.6114 7.37512C78.9971 7.46462 78.4871 7.89487 78.2964 8.48487C78.1041 9.07637 78.2654 9.72337 78.7104 10.1551L83.2111 14.5304L82.1503 20.7226C82.0461 21.3336 82.2971 21.9529 82.7989 22.3179C83.3024 22.6814 83.9689 22.7286 84.5164 22.4401L90.0633 19.5151L95.6266 22.4401C95.8646 22.5656 96.1253 22.6276 96.3843 22.6276C96.7216 22.6276 97.0588 22.5234 97.3458 22.3181C97.8478 21.9514 98.0986 21.3339 97.9943 20.7229L96.9336 14.5306L101.434 10.1554C101.879 9.72637 102.04 9.07462 101.848 8.48462Z" fill="#FFC13E"/>
<path d="M127.92 8.48658C127.728 7.89508 127.218 7.46657 126.603 7.37682L120.38 6.47258L117.597 0.837828C117.048 -0.276672 115.225 -0.276672 114.675 0.837828L111.892 6.47258L105.684 7.37682C105.069 7.46657 104.559 7.89658 104.369 8.48658C104.176 9.07808 104.338 9.72508 104.783 10.1568L109.283 14.5321L108.223 20.7243C108.118 21.3353 108.369 21.9546 108.871 22.3196C109.375 22.6828 110.041 22.7303 110.589 22.4418L116.136 19.5168L121.699 22.4418C121.937 22.5673 122.198 22.6293 122.457 22.6293C122.794 22.6293 123.131 22.5251 123.418 22.3198C123.92 21.9531 124.171 21.3356 124.067 20.7246L123.006 14.5323L127.507 10.1571C127.951 9.72657 128.112 9.07633 127.92 8.48658ZM120.115 12.7933C119.73 13.1681 119.552 13.7076 119.644 14.2371L120.292 18.0208L116.891 16.2333C116.655 16.1078 116.394 16.0458 116.134 16.0458C115.873 16.0458 115.612 16.1078 115.376 16.2333L111.993 18.0161L112.642 14.2373C112.733 13.7078 112.555 13.1668 112.171 12.7936L109.427 10.1261L113.209 9.57533C113.738 9.49883 114.196 9.16457 114.434 8.68407L116.134 5.24083L117.833 8.68407C118.071 9.16632 118.529 9.49883 119.06 9.57533L122.857 10.1278L120.115 12.7933Z" fill="#FFC13E"/>
</svg>
