<svg width="42" height="48" viewBox="0 0 42 48" fill="none" xmlns="http://www.w3.org/2000/svg">
<path d="M13.3515 9.54938C11.8874 10.1024 10.8384 11.5068 10.8384 13.1617C10.8384 13.7991 11.0081 14.3922 11.2822 14.9233C10.1209 15.3697 9.29004 16.4894 9.29004 17.8068C9.29004 19.1246 10.1209 20.2439 11.2822 20.6907C11.0081 21.2219 10.8384 21.815 10.8384 22.4519C10.8384 24.1073 11.8874 25.5116 13.3515 26.0643C13.2354 26.3886 13.161 26.7334 13.161 27.097C13.161 28.8049 14.5498 30.1938 16.2577 30.1938C16.6433 30.1938 17.0088 30.114 17.3494 29.9855C17.851 31.0209 18.9031 31.7421 20.1286 31.7421C21.8365 31.7421 23.2253 30.3533 23.2253 28.6454V6.96827C23.2253 5.26076 21.8365 3.87154 20.1286 3.87154C18.9031 3.87154 17.851 4.59317 17.3494 5.62819C17.0088 5.49966 16.6433 5.4199 16.2577 5.4199C14.5498 5.4199 13.161 6.80912 13.161 8.51663C13.161 8.88067 13.2354 9.22504 13.3515 9.54938ZM16.2577 6.96827C17.1116 6.96827 17.8061 7.66269 17.8061 8.51663H19.3544C19.3544 7.77269 19.0796 7.09755 18.6407 6.56341C18.8203 5.90717 19.4157 5.4199 20.1286 5.4199C20.9825 5.4199 21.677 6.11432 21.677 6.96827V28.6454C21.677 29.4993 20.9825 30.1938 20.1286 30.1938C19.4157 30.1938 18.8203 29.7069 18.6407 29.0503C19.0796 28.5161 19.3544 27.8413 19.3544 27.097H17.8061C17.8061 27.951 17.1116 28.6454 16.2577 28.6454C15.4037 28.6454 14.7093 27.951 14.7093 27.097C14.7093 26.2431 15.4037 25.5487 16.2577 25.5487V24.0003C15.5035 24.0003 14.8208 24.2823 14.2837 24.7314C13.2059 24.5307 12.3868 23.5871 12.3868 22.4519C12.3868 21.1716 13.429 20.1294 14.7093 20.1294C15.99 20.1294 17.0319 21.1716 17.0319 22.4519H18.5802C18.5802 20.3176 16.844 18.581 14.7093 18.581C13.8346 18.581 13.0355 18.8838 12.3868 19.3756V19.3552C11.5328 19.3552 10.8384 18.6608 10.8384 17.8068C10.8384 16.9529 11.5328 16.2585 12.3868 16.2585V16.2384C13.0355 16.7302 13.8346 17.0326 14.7093 17.0326C16.844 17.0326 18.5802 15.2964 18.5802 13.1617H17.0319C17.0319 14.4425 15.99 15.4843 14.7093 15.4843C13.429 15.4843 12.3868 14.4425 12.3868 13.1617C12.3868 12.0269 13.2059 11.0834 14.2837 10.8827C14.8208 11.3317 15.5035 11.6134 16.2577 11.6134V10.065C15.4037 10.065 14.7093 9.37058 14.7093 8.51663C14.7093 7.66269 15.4037 6.96827 16.2577 6.96827Z" fill="#FFC13E"/>
<path d="M31.7415 5.4199C31.3559 5.4199 30.9907 5.49966 30.6501 5.62819C30.1481 4.59317 29.0961 3.87154 27.8705 3.87154C26.1626 3.87154 24.7738 5.26076 24.7738 6.96827V28.6454C24.7738 30.3533 26.1626 31.7421 27.8705 31.7421C29.0961 31.7421 30.1481 31.0209 30.6501 29.9855C30.9907 30.114 31.3559 30.1938 31.7415 30.1938C33.4493 30.1938 34.8382 28.8049 34.8382 27.097C34.8382 26.7334 34.7641 26.3886 34.6477 26.0643C36.1117 25.5116 37.1607 24.1073 37.1607 22.4519C37.1607 21.815 36.9914 21.2219 36.7173 20.6907C37.8786 20.2439 38.7091 19.1246 38.7091 17.8068C38.7091 16.4894 37.8786 15.3697 36.7173 14.9233C36.9914 14.3922 37.1607 13.7991 37.1607 13.1617C37.1607 11.5068 36.1117 10.1024 34.6477 9.54938C34.7641 9.22504 34.8382 8.88067 34.8382 8.51663C34.8382 6.80912 33.4493 5.4199 31.7415 5.4199ZM35.6124 13.1617C35.6124 14.4425 34.5705 15.4843 33.2898 15.4843C32.0095 15.4843 30.9673 14.4425 30.9673 13.1617H29.4189C29.4189 15.2964 31.1555 17.0326 33.2898 17.0326C34.1646 17.0326 34.9637 16.7302 35.6124 16.2384V16.2585C36.4663 16.2585 37.1607 16.9529 37.1607 17.8068C37.1607 18.6608 36.4663 19.3552 35.6124 19.3552V19.3756C34.9637 18.8838 34.1646 18.581 33.2898 18.581C31.1555 18.581 29.4189 20.3176 29.4189 22.4519H30.9673C30.9673 21.1716 32.0095 20.1294 33.2898 20.1294C34.5705 20.1294 35.6124 21.1716 35.6124 22.4519C35.6124 23.5871 34.7932 24.5307 33.7158 24.7314C33.1783 24.2823 32.4956 24.0003 31.7415 24.0003V25.5487C32.5954 25.5487 33.2898 26.2431 33.2898 27.097C33.2898 27.951 32.5954 28.6454 31.7415 28.6454C30.8875 28.6454 30.1931 27.951 30.1931 27.097H28.6447C28.6447 27.8413 28.9195 28.5161 29.3584 29.0503C29.1789 29.7069 28.5835 30.1938 27.8705 30.1938C27.0166 30.1938 26.3222 29.4993 26.3222 28.6454V6.96827C26.3222 6.11432 27.0166 5.4199 27.8705 5.4199C28.5835 5.4199 29.1789 5.90717 29.3584 6.56341C28.9195 7.09755 28.6447 7.77269 28.6447 8.51663H30.1931C30.1931 7.66269 30.8875 6.96827 31.7415 6.96827C32.5954 6.96827 33.2898 7.66269 33.2898 8.51663C33.2898 9.37058 32.5954 10.065 31.7415 10.065V11.6134C32.4956 11.6134 33.1783 11.3317 33.7158 10.8827C34.7932 11.0834 35.6124 12.0269 35.6124 13.1617Z" fill="#FFC13E"/>
<path d="M36.1908 4.82871C32.5732 1.42843 27.8351 -0.276435 22.8626 0.0365649L22.9587 1.58153C27.5021 1.29915 31.8266 2.85281 35.1309 5.95672C38.4367 9.06328 40.2576 13.2725 40.2576 17.8069C40.2576 23.2711 37.5339 28.3381 32.9716 31.3615C31.3979 32.4048 30.2072 33.8931 29.4734 35.6131H18.4939C17.7499 33.8806 16.5546 32.3818 14.9783 31.329C10.2765 28.1865 7.57479 22.9385 7.75057 17.2882L6.20296 17.2402C6.01017 23.4276 8.96968 29.1758 14.1183 32.6158C15.2554 33.376 16.1634 34.411 16.7962 35.6131H14.7095V37.1614H17.4139C17.5639 37.6631 17.6842 38.1772 17.745 38.7098H16.2579V40.2582H17.8063V42.5807C17.8063 43.009 18.1533 43.3549 18.5804 43.3549H19.3546C19.3546 45.9167 21.4379 48 23.9997 48C26.5616 48 28.6448 45.9167 28.6448 43.3549H29.419C29.8465 43.3549 30.1932 43.009 30.1932 42.5807V40.2582H31.7416V38.7098H30.2476C30.3024 38.1779 30.4117 37.6623 30.5587 37.1614H33.2899V35.6131H31.1696C31.7933 34.4242 32.6961 33.402 33.8275 32.6528C38.823 29.3398 41.8059 23.7905 41.8059 17.8069C41.8059 12.9127 39.759 8.18174 36.1908 4.82871ZM23.9997 46.4516C22.2918 46.4516 20.903 45.0628 20.903 43.3549H27.0965C27.0965 45.0628 25.7076 46.4516 23.9997 46.4516ZM28.6448 41.8065H19.3546V40.2582H28.6448V41.8065ZM28.7 38.7098H19.2926C19.2408 38.1828 19.1573 37.665 19.0303 37.1614H28.9408C28.8176 37.6642 28.7461 38.1844 28.7 38.7098Z" fill="black"/>
<path d="M5.4192 5.41993C7.12709 5.41993 8.51593 6.80915 8.51593 8.51666C8.51593 8.94495 8.86295 9.29084 9.29012 9.29084C9.71765 9.29084 10.0643 8.94495 10.0643 8.51666C10.0643 6.80915 11.4531 5.41993 13.161 5.41993C13.5886 5.41993 13.9352 5.07404 13.9352 4.64574C13.9352 4.21782 13.5886 3.87156 13.161 3.87156C11.4531 3.87156 10.0643 2.48272 10.0643 0.774824C10.0643 0.346907 9.71765 0.000640869 9.29012 0.000640869C8.86295 0.000640869 8.51593 0.346907 8.51593 0.774824C8.51593 2.48272 7.12709 3.87156 5.4192 3.87156C4.99204 3.87156 4.64502 4.21782 4.64502 4.64574C4.64502 5.07404 4.99204 5.41993 5.4192 5.41993ZM9.29012 3.33968C9.63411 3.85682 10.079 4.30212 10.5962 4.64574C10.079 4.98974 9.63411 5.43467 9.29012 5.9518C8.9465 5.43467 8.50119 4.98974 7.98406 4.64574C8.50119 4.30212 8.9465 3.85682 9.29012 3.33968Z" fill="#FFC13E"/>
<path d="M8.51601 13.1618C8.94355 13.1618 9.29019 12.8159 9.29019 12.3876C9.29019 11.9597 8.94355 11.6134 8.51601 11.6134C6.80812 11.6134 5.41928 10.2246 5.41928 8.51666C5.41928 8.08874 5.07264 7.74248 4.6451 7.74248C4.21793 7.74248 3.87091 8.08874 3.87091 8.51666C3.87091 10.2246 2.48207 11.6134 0.774183 11.6134C0.347021 11.6134 0 11.9597 0 12.3876C0 12.8159 0.347021 13.1618 0.774183 13.1618C2.48207 13.1618 3.87091 14.551 3.87091 16.2585C3.87091 16.6868 4.21793 17.0327 4.6451 17.0327C5.07264 17.0327 5.41928 16.6868 5.41928 16.2585C5.41928 14.551 6.80812 13.1618 8.51601 13.1618ZM4.6451 13.6936C4.30148 13.1765 3.85617 12.7316 3.33904 12.3876C3.85617 12.044 4.30072 11.5987 4.6451 11.0815C4.98909 11.5987 5.43402 12.0432 5.95115 12.3876C5.43402 12.7316 4.98909 13.1765 4.6451 13.6936Z" fill="#FFC13E"/>
</svg>
