<svg width="45" height="48" viewBox="0 0 45 48" fill="none" xmlns="http://www.w3.org/2000/svg">
<path d="M42.127 11.9612H41.6404C41.3528 10.9511 40.951 9.98189 40.4402 9.0656L40.7861 8.71967C41.1818 8.32415 41.3996 7.79663 41.3996 7.23424C41.3996 6.67184 41.1818 6.14442 40.7858 5.74843L38.4815 3.44683C38.0858 3.04868 37.5576 2.8295 36.9942 2.8295C36.4308 2.8295 35.9026 3.04868 35.5088 3.44486L35.1634 3.79032C34.2464 3.27799 33.2769 2.87543 32.2674 2.58791V2.10145C32.2675 0.942728 31.3249 0 30.166 0H26.9081C25.7494 0 24.8067 0.942728 24.8067 2.10145V2.58791C23.7974 2.87534 22.8273 3.27799 21.9085 3.79069L21.5646 3.44683C21.1687 3.04868 20.6405 2.8295 20.0772 2.82959C19.5139 2.82959 18.9857 3.04887 18.5919 3.44495L16.2881 5.7489C15.8924 6.14442 15.6746 6.67194 15.6746 7.23433C15.6746 7.79672 15.8924 8.32415 16.288 8.71967L16.6337 9.06551C16.1208 9.98461 15.7189 10.954 15.4328 11.9612H14.9445C13.7858 11.9612 12.843 12.9039 12.843 14.0626V17.3234C12.843 18.4821 13.7858 19.4248 14.9445 19.4248H15.4328C15.7189 20.432 16.1208 21.4013 16.6337 22.3205L16.288 22.6663C15.8923 23.0619 15.6745 23.5894 15.6745 24.1518C15.6745 24.7141 15.8923 25.2416 16.2879 25.6371L18.59 27.9392C18.9857 28.3373 19.5138 28.5565 20.0771 28.5565H20.0772C20.6405 28.5565 21.1688 28.3373 21.5626 27.9412L21.9084 27.5953C22.8281 28.1085 23.7982 28.5106 24.8066 28.7965V29.2847C24.8066 30.4434 25.7493 31.3861 26.908 31.3861H30.166C31.3247 31.3861 32.2674 30.4434 32.2674 29.2847V28.7965C33.276 28.5105 34.2454 28.1086 35.1634 27.5957L35.5069 27.9392C35.9026 28.3373 36.4307 28.5565 36.9941 28.5565C37.5575 28.5565 38.0858 28.3372 38.4791 27.9415L40.7861 25.6371C41.1817 25.2415 41.3995 24.714 41.3995 24.1517C41.3995 23.5893 41.1817 23.0619 40.7861 22.6663L40.4402 22.3204C40.9509 21.4041 41.3526 20.435 41.6403 19.4248H42.1269C43.2856 19.4248 44.2283 18.4821 44.2283 17.3234V14.0626C44.2284 12.9039 43.2858 11.9612 42.127 11.9612ZM30.3925 29.2846C30.3925 29.4074 30.2889 29.5111 30.166 29.5111H26.9081C26.7853 29.5111 26.6816 29.4074 26.6816 29.2846V28.0674V22.1573C26.6816 21.7652 26.4377 21.4146 26.0702 21.2783C23.551 20.344 21.8585 17.9195 21.8585 15.2453C21.8585 13.1259 22.9138 11.1392 24.681 9.93127C24.7603 9.87708 24.8304 9.83283 24.8917 9.79655C24.8883 9.91842 24.8797 10.0343 24.8751 10.0948C24.8681 10.1899 24.8625 10.265 24.8625 10.3395V14.7642C24.8625 16.795 26.4493 18.4911 28.4749 18.6254C28.5163 18.6282 28.5577 18.6282 28.5991 18.6254C30.6233 18.4912 32.2089 16.7951 32.2089 14.7642V10.3395C32.2089 10.2654 32.2034 10.1908 32.1964 10.0962C32.1919 10.0354 32.1833 9.91889 32.18 9.79646C32.2412 9.83264 32.3109 9.8768 32.3899 9.93089C34.1575 11.1391 35.2129 13.1258 35.2129 15.2452C35.2129 17.9191 33.5213 20.3437 31.0036 21.2783C30.6362 21.4147 30.3924 21.7652 30.3924 22.1572V28.0673V29.2846H30.3925ZM42.3535 17.3234C42.3535 17.444 42.2476 17.5499 42.127 17.5499H40.9125C40.4746 17.5499 40.0949 17.8531 39.9982 18.2804C39.7013 19.5922 39.1871 20.8326 38.4699 21.9673C38.2357 22.3378 38.2895 22.8211 38.5994 23.1311L39.4605 23.9921C39.5164 24.048 39.5247 24.1161 39.5247 24.1517C39.5247 24.1872 39.5164 24.2554 39.4608 24.3109L37.1519 26.6173C37.0991 26.6703 37.0369 26.6815 36.9942 26.6815C36.9515 26.6815 36.8895 26.6703 36.8347 26.6152L35.9736 25.7541C35.6632 25.4438 35.1794 25.3904 34.8089 25.6251C34.0087 26.1322 33.1569 26.5346 32.2675 26.8319V22.7808C35.1759 21.4273 37.088 18.4777 37.088 15.2451C37.088 12.506 35.7273 9.94073 33.4483 8.38293C33.0991 8.14434 32.0374 7.41845 31.1089 7.95291C30.1971 8.47789 30.2879 9.70852 30.3266 10.2341C30.33 10.2797 30.3333 10.3181 30.334 10.3395V14.7642C30.334 15.7903 29.5498 16.6506 28.5371 16.7495C27.523 16.6505 26.7375 15.7902 26.7375 14.7642L26.7374 10.3463C26.7383 10.3181 26.7416 10.2797 26.745 10.2339C26.7841 9.70862 26.8757 8.47864 25.9646 7.95338C25.0365 7.41798 23.9732 8.14415 23.6234 8.38293C21.3442 9.94083 19.9835 12.5061 19.9835 15.2452C19.9835 18.4783 21.8966 21.428 24.8067 22.7812V26.832C23.9171 26.5347 23.0643 26.1321 22.2617 25.6247C22.1074 25.5272 21.9338 25.4797 21.761 25.4797C21.5188 25.4797 21.2787 25.5734 21.0978 25.7543L20.235 26.6173C20.1822 26.6704 20.12 26.6816 20.0773 26.6816C20.0345 26.6816 19.9726 26.6704 19.9178 26.6154L17.6139 24.3113C17.5579 24.2555 17.5496 24.1873 17.5496 24.1518C17.5496 24.1162 17.5579 24.0481 17.6139 23.9921L18.4749 23.1311C18.7848 22.8211 18.8386 22.3378 18.6044 21.9673C17.8835 20.8266 17.3694 19.5867 17.0764 18.2819C16.9804 17.854 16.6004 17.5498 16.1617 17.5498H14.9447C14.824 17.5498 14.7182 17.4439 14.7182 17.3233V14.0625C14.7182 13.9397 14.8219 13.836 14.9447 13.836H16.1617C16.6004 13.836 16.9803 13.5318 17.0764 13.1039C17.3694 11.7991 17.8834 10.5591 18.6044 9.41856C18.8386 9.04807 18.7848 8.5647 18.4749 8.25478L17.6138 7.3937C17.5579 7.33783 17.5496 7.26977 17.5496 7.23414C17.5496 7.19852 17.5579 7.13046 17.6139 7.07449L19.9198 4.76848C19.9726 4.71542 20.0346 4.70426 20.0774 4.70426C20.1201 4.70426 20.1822 4.71542 20.2369 4.77045L21.0979 5.63152C21.408 5.94155 21.8914 5.99527 22.2618 5.76108C23.4009 5.04091 24.6422 4.52577 25.9509 4.23018C26.3784 4.13362 26.6818 3.75385 26.6818 3.31577V2.10145C26.6818 1.97864 26.7855 1.87496 26.9083 1.87496H30.1662C30.289 1.87496 30.3927 1.97864 30.3927 2.10145V3.31595C30.3927 3.75413 30.6962 4.13381 31.1236 4.23037C32.4334 4.52624 33.6733 5.0411 34.8091 5.7608C35.1797 5.99555 35.6634 5.94211 35.9738 5.6318L36.8368 4.76876C36.8895 4.7157 36.9517 4.70455 36.9944 4.70455C37.0371 4.70455 37.0992 4.7157 37.1543 4.77111L39.4607 7.07477C39.5165 7.13065 39.5249 7.19871 39.5249 7.23433C39.5249 7.26995 39.5165 7.33802 39.4606 7.39398L38.5996 8.25506C38.2897 8.56499 38.2359 9.04835 38.47 9.41884C39.1872 10.5535 39.7015 11.7938 39.9984 13.1058C40.0951 13.533 40.4747 13.8362 40.9127 13.8362H42.1271C42.25 13.8362 42.3536 13.9399 42.3536 14.0627V17.3234H42.3535Z" fill="#FFC13E"/>
<path d="M33.9995 41.2791C33.6335 41.6452 33.6335 42.2389 33.9995 42.605C34.1826 42.788 34.4225 42.8796 34.6625 42.8796C34.9024 42.8796 35.1423 42.788 35.3254 42.605L35.328 42.6024C35.6941 42.2363 35.6928 41.644 35.3266 41.2779C34.9604 40.9118 34.3656 40.9132 33.9995 41.2791Z" fill="black"/>
<path d="M38.3425 32.1977L30.8997 36.0199C30.2688 35.3664 29.3848 34.9588 28.4069 34.9588H23.3074C23.0218 34.9588 22.9521 34.9361 22.9474 34.9346C22.9061 34.9128 22.7754 34.79 22.6705 34.6914L22.624 34.6477C18.4983 30.764 15.0132 31.0101 11.0501 32.5742C10.4088 32.8273 10.3964 32.8278 9.75249 32.8553L8.59939 32.8562C8.2709 31.8652 7.33605 31.148 6.23629 31.148H2.48675C1.11551 31.148 0 32.2648 0 33.6375V43.4781C0 44.8492 1.11551 45.9648 2.48675 45.9648H6.23629C7.33595 45.9648 8.27071 45.2485 8.5993 44.2587H10.7086C10.8949 44.2587 10.8949 44.2587 11.1116 44.3197C11.1903 44.342 11.2861 44.369 11.4099 44.4022L21.1122 46.9979C21.5399 47.1134 21.9321 47.2271 22.3115 47.337C23.5546 47.6972 24.5995 48 25.6886 48C26.9195 48 28.2066 47.6132 29.8994 46.485C29.9075 46.4796 29.9157 46.474 29.9237 46.4683L31.776 45.1474C32.1976 44.8468 32.2957 44.2614 31.995 43.8398C31.6944 43.4182 31.1088 43.3202 30.6875 43.6209L28.8475 44.9329C26.3909 46.5668 25.3478 46.2647 22.8333 45.5361C22.4459 45.4239 22.0455 45.3078 21.5991 45.1873L11.896 42.5915C11.7824 42.5609 11.6933 42.5358 11.6201 42.5152C11.2661 42.4154 11.1338 42.3839 10.7087 42.3839H8.72577V34.7319H9.7389C9.7524 34.7319 9.76571 34.7316 9.77921 34.731L9.83265 34.7288C10.6185 34.6952 10.8384 34.6737 11.7385 34.3183C15.2193 32.9448 17.9061 32.7815 21.3401 36.0142L21.3865 36.0578C21.9734 36.6094 22.3113 36.834 23.3075 36.834H28.407C29.0055 36.834 29.5274 37.1662 29.7994 37.6557C29.8023 37.6611 29.8057 37.6663 29.8087 37.6717C29.9302 37.8964 29.9994 38.1535 29.9994 38.4265C29.9994 39.3031 29.2851 40.0162 28.4071 40.0162H20.1426C19.6249 40.0162 19.2051 40.436 19.2051 40.9537C19.2051 41.4715 19.6249 41.8912 20.1426 41.8912H28.4071C30.319 41.8912 31.8743 40.337 31.8743 38.4265C31.8743 38.1668 31.8447 37.914 31.7904 37.6706L39.1991 33.8658C39.9003 33.5058 40.8591 33.5445 41.3352 34.3169C41.7563 34.9978 41.5247 35.9029 40.7967 36.4219L37.5467 38.7365C37.125 39.0369 37.0265 39.6222 37.3269 40.044C37.5098 40.3008 37.7984 40.4377 38.0913 40.4377C38.2795 40.4377 38.4694 40.3812 38.6343 40.2638L41.8846 37.9489C43.4283 36.8484 43.8775 34.863 42.9305 33.332C41.9992 31.8206 40.0269 31.3329 38.3425 32.1977ZM6.85072 43.4781C6.85072 43.8098 6.56938 44.0899 6.23629 44.0899H2.48675C2.15507 44.0899 1.87496 43.8097 1.87496 43.4781V33.6375C1.87496 33.2987 2.14945 33.023 2.48675 33.023H6.23629C6.56938 33.023 6.85072 33.3044 6.85072 33.6375V43.4781Z" fill="black"/>
</svg>
