<svg width="105" height="105" viewBox="0 0 105 105" fill="none" xmlns="http://www.w3.org/2000/svg">
<g filter="url(#filter0_d)">
<circle cx="52.5" cy="52.5" r="36" stroke="#FFC13E" stroke-width="3"/>
</g>
<path d="M49 49.5H53V50.5H49V49.5Z" fill="#FFC13E"/>
<path d="M43 49.5H47.5V50.5H43V49.5Z" fill="#FFC13E"/>
<path d="M51.5 51.5H60V52.5H51.5V51.5Z" fill="#FFC13E"/>
<path d="M46 51.5H50V52.5H46V51.5Z" fill="#FFC13E"/>
<path d="M43 51.5H45V52.5H43V51.5Z" fill="#FFC13E"/>
<path d="M48 54.5H55V55.5H48V54.5Z" fill="#FFC13E"/>
<path d="M57.5 58H60V59H57.5V58Z" fill="#FFC13E"/>
<path d="M50 58H56V59H50V58Z" fill="#FFC13E"/>
<path d="M43 58H48.5V59H43V58Z" fill="#FFC13E"/>
<path d="M54 60H60V61H54V60Z" fill="#FFC13E"/>
<path d="M46.5 60H52.5V61H46.5V60Z" fill="#FFC13E"/>
<path d="M43 60H45V61H43V60Z" fill="#FFC13E"/>
<path d="M58 62H60V63H58V62Z" fill="#FFC13E"/>
<path d="M49 62H56.5V63H49V62Z" fill="#FFC13E"/>
<path d="M43 62H47.5V63H43V62Z" fill="#FFC13E"/>
<path d="M58.5 64H60V65H58.5V64Z" fill="#FFC13E"/>
<path d="M52 64H57V65H52V64Z" fill="#FFC13E"/>
<path d="M43 64H50.5V65H43V64Z" fill="#FFC13E"/>
<path d="M42.5 68H61.5C62.1628 67.9992 62.7982 67.7356 63.2669 67.2669C63.7356 66.7983 63.9992 66.1628 64 65.5V46.8284C64.0009 46.5 63.9366 46.1746 63.811 45.8712C63.6853 45.5678 63.5006 45.2923 63.2678 45.0607L56.9394 38.7322L56.9393 38.7322C56.7077 38.4994 56.4322 38.3147 56.1288 38.1891C55.8253 38.0634 55.5 37.9991 55.1716 38H42.5C41.8372 38.0008 41.2017 38.2644 40.7331 38.7331C40.2644 39.2018 40.0008 39.8372 40 40.5V65.5C40.0008 66.1628 40.2644 66.7983 40.7331 67.2669C41.2017 67.7356 41.8372 67.9992 42.5 68V68ZM41 40.5C41.0005 40.1023 41.1586 39.7211 41.4398 39.4399C41.721 39.1586 42.1023 39.0005 42.5 39H55.1716C55.282 39.0001 55.3922 39.0123 55.5 39.0363V44C55.5007 44.6628 55.7644 45.2983 56.2331 45.7669C56.7017 46.2356 57.3372 46.4993 58 46.5H61V45.5H58C57.6023 45.4996 57.221 45.3414 56.9398 45.0602C56.6586 44.779 56.5004 44.3977 56.5 44V39.7071L62.5607 45.7678C62.7004 45.9068 62.8112 46.072 62.8866 46.2541C62.962 46.4362 63.0005 46.6314 63 46.8284V65.5C62.9995 65.8977 62.8414 66.279 62.5601 66.5602C62.2789 66.8414 61.8977 66.9995 61.5 67H42.5C42.1023 66.9995 41.721 66.8414 41.4398 66.5602C41.1586 66.279 41.0005 65.8977 41 65.5V40.5Z" fill="black"/>
<path d="M43.2 46.4L45.2 47.9C45.2866 47.9649 45.3918 48 45.5 48H47.5C47.6082 48 47.7134 47.9649 47.8 47.9L49.8 46.4C49.8621 46.3534 49.9125 46.293 49.9472 46.2236C49.9819 46.1542 50 46.0776 50 46V43C50 42.9177 49.9797 42.8367 49.9408 42.7641C49.902 42.6915 49.8458 42.6297 49.7773 42.584L46.7773 40.584C46.6952 40.5292 46.5987 40.5 46.5 40.5C46.4013 40.5 46.3048 40.5292 46.2227 40.584L43.2227 42.584C43.1542 42.6297 43.098 42.6915 43.0592 42.7641C43.0203 42.8367 43 42.9177 43 43V46C43 46.0776 43.0181 46.1542 43.0528 46.2236C43.0875 46.293 43.1379 46.3534 43.2 46.4V46.4ZM47.3333 47H45.6667L44 45.75V43.9343L46.2227 45.416C46.3048 45.4708 46.4013 45.5 46.5 45.5C46.5987 45.5 46.6952 45.4708 46.7773 45.416L49 43.9343V45.75L47.3333 47ZM46.5 41.6009L48.5986 43L46.5 44.3991L44.4014 43L46.5 41.6009Z" fill="black"/>
<defs>
<filter id="filter0_d" x="0" y="0" width="105" height="105" filterUnits="userSpaceOnUse" color-interpolation-filters="sRGB">
<feFlood flood-opacity="0" result="BackgroundImageFix"/>
<feColorMatrix in="SourceAlpha" type="matrix" values="0 0 0 0 0 0 0 0 0 0 0 0 0 0 0 0 0 0 127 0"/>
<feOffset/>
<feGaussianBlur stdDeviation="7.5"/>
<feColorMatrix type="matrix" values="0 0 0 0 1 0 0 0 0 0.756863 0 0 0 0 0.243137 0 0 0 1 0"/>
<feBlend mode="normal" in2="BackgroundImageFix" result="effect1_dropShadow"/>
<feBlend mode="normal" in="SourceGraphic" in2="effect1_dropShadow" result="shape"/>
</filter>
</defs>
</svg>
