<svg width="117" height="63.947" viewBox="0 0 1976 1080" fill="none" xmlns="http://www.w3.org/2000/svg">
<path d="M930.027 686C950.224 686 967.983 682.158 983.304 674.473C998.625 666.679 1010.58 655.756 1019.17 641.705C1027.76 627.653 1032.05 611.132 1032.05 592.14V443.94H984V591.811C984 602.02 981.621 611.022 976.862 618.816C972.103 626.61 965.661 632.758 957.536 637.259C949.411 641.65 940.241 643.845 930.027 643.845C920.045 643.845 910.933 641.705 902.692 637.423C894.567 633.032 888.067 626.94 883.192 619.145C878.433 611.351 876.054 602.24 876.054 591.811V443.94L828 444.269V592.14C828 611.132 832.295 627.653 840.884 641.705C849.473 655.756 861.429 666.679 876.75 674.473C892.072 682.158 909.831 686 930.027 686Z" fill="url(#paint0_linear)"/>
<path d="M1064.64 681.06H1112.7V590.823C1112.7 579.735 1113.97 570.843 1116.53 564.147C1119.2 557.45 1122.56 552.4 1126.62 548.997C1130.69 545.484 1135.04 543.124 1139.68 541.917C1144.33 540.709 1148.68 540.105 1152.74 540.105C1162.84 540.105 1170.62 542.246 1176.07 546.527C1181.64 550.809 1185.65 556.133 1188.08 562.5C1190.52 568.867 1191.97 575.234 1192.44 581.601C1192.9 587.859 1193.13 593.018 1193.13 597.08V681.06H1241.19V581.272C1241.19 578.308 1240.96 573.588 1240.49 567.111C1240.03 560.634 1238.69 553.498 1236.49 545.704C1234.28 537.8 1230.57 530.225 1225.34 522.98C1220.24 515.735 1213.04 509.752 1203.75 505.031C1194.47 500.311 1182.46 497.951 1167.71 497.951C1154.13 497.951 1142.29 500.091 1132.2 504.373C1122.1 508.654 1113.62 514.362 1106.78 521.498V503.22H1064.64V681.06Z" fill="url(#paint1_linear)"/>
<path d="M1274.18 478.52H1321.54V439H1274.18V478.52ZM1274.18 681.06H1321.54V503.22H1274.18V681.06Z" fill="url(#paint2_linear)"/>
<path d="M1361.54 681.06H1408.9V439H1361.54V681.06Z" fill="url(#paint3_linear)"/>
<path d="M1532.83 686C1550.94 686 1567.59 681.499 1582.8 672.497C1598.12 663.496 1609.32 650.871 1616.4 634.624L1569.05 621.78C1561.85 636.71 1548.85 644.175 1530.05 644.175C1517.16 644.175 1507.01 640.772 1499.58 633.965C1492.26 627.159 1487.74 617.389 1486 604.655H1617.97C1619.94 583.138 1617.62 564.421 1611.01 548.503C1604.39 532.586 1594.18 520.236 1580.36 511.453C1566.55 502.671 1549.78 498.28 1530.05 498.28C1511.47 498.28 1495.05 502.287 1480.77 510.301C1466.5 518.205 1455.3 529.347 1447.17 543.728C1439.05 558.109 1434.98 575.015 1434.98 594.445C1434.98 612.229 1439.1 628.037 1447.34 641.869C1455.7 655.592 1467.19 666.405 1481.82 674.309C1496.56 682.103 1513.56 686 1532.83 686ZM1532.13 537.141C1543.51 537.141 1552.22 539.831 1558.25 545.21C1564.4 550.589 1568.35 559.316 1570.09 571.392H1487.22C1492.21 548.558 1507.18 537.141 1532.13 537.141Z" fill="url(#paint4_linear)"/>
<path d="M1613.92 681.06H1669.63L1708.63 626.391L1747.29 681.06H1803L1735.45 591.152L1801.26 503.22H1745.54L1708.63 555.913L1671.03 503.22H1615.31L1681.12 591.152L1613.92 681.06Z" fill="url(#paint5_linear)"/>
<path d="M628.921 434.195L730 463.119C676.211 568.729 658.452 645.509 628.921 801.173V434.195Z" fill="url(#paint6_linear)"/>
<path d="M284.531 737.383H228.861V538.266H284.531V737.383Z" fill="url(#paint7_linear)" stroke="white" stroke-width="10"/>
<path d="M459.975 737.382H404.306V410.055H459.975V737.382Z" fill="url(#paint8_linear)" stroke="white" stroke-width="10"/>
<path d="M372.259 737.382H316.577V491.353H372.259V737.382Z" fill="url(#paint9_linear)" stroke="white" stroke-width="10"/>
<path d="M547.704 737.382H492.021V378.785H547.704V737.382Z" fill="url(#paint10_linear)" stroke="white" stroke-width="10"/>
<path d="M628.921 358.237L711.931 378.761C668.538 489.077 652.748 578.964 628.921 741.56V358.237Z" fill="url(#paint11_linear)"/>
<path d="M304.053 274L282.829 294.011H608.91V785.276H167.024V427.952L147 449.176V805.3H628.921V274H304.053Z" fill="url(#paint12_linear)"/>
<g filter="url(#filter0_d)">
<path d="M229.228 545.213L223.861 531.691C225.465 535.688 227.254 540.237 229.228 545.213L229.234 545.227C249.028 595.128 287.388 687.908 343.842 696.699C425.187 709.366 483.863 572.688 508.406 506.809H482.837L552.882 450.646V545.227L538.566 519.626C509.157 589.534 433.081 740.42 354.541 736.438C276 732.457 240.068 583.617 229.234 545.227L229.228 545.213Z" fill="url(#paint13_linear)"/>
<path d="M223.861 531.691L229.234 545.227C240.068 583.617 276 732.457 354.541 736.438C433.081 740.42 509.157 589.534 538.566 519.626L552.882 545.227V450.646L482.837 506.809H508.406C483.863 572.688 425.187 709.366 343.842 696.699C281.753 687.03 241.551 575.769 223.861 531.691Z" stroke="white" stroke-width="10"/>
</g>
<path d="M831.36 801H836.448V775.296L853.464 801H858.552V766.44H853.464V792.12L836.448 766.44H831.36V801ZM895.587 801.72C898.307 801.72 900.699 801.168 902.763 800.064C904.827 798.944 906.443 797.376 907.611 795.36C908.779 793.344 909.363 790.984 909.363 788.28V766.44H904.275V788.016C904.275 789.952 903.851 791.592 903.003 792.936C902.155 794.264 901.067 795.272 899.739 795.96C898.427 796.648 897.043 796.992 895.587 796.992C894.163 796.992 892.779 796.656 891.435 795.984C890.107 795.296 889.019 794.288 888.171 792.96C887.323 791.632 886.899 789.984 886.899 788.016V766.44L881.811 766.464V788.28C881.811 790.984 882.395 793.344 883.563 795.36C884.731 797.376 886.347 798.944 888.411 800.064C890.491 801.168 892.883 801.72 895.587 801.72ZM932.636 801H937.652V788.592H946.82L952.844 801H958.58L952.052 787.608C954.02 786.76 955.492 785.44 956.468 783.648C957.444 781.856 957.932 779.808 957.932 777.504C957.932 774.704 957.212 772.304 955.772 770.304C954.332 768.304 952.164 767.08 949.268 766.632C948.82 766.552 948.348 766.504 947.852 766.488C947.356 766.456 946.94 766.44 946.604 766.44H932.636V801ZM937.652 783.84V771.168H946.412C946.732 771.168 947.084 771.184 947.468 771.216C947.868 771.248 948.244 771.312 948.596 771.408C950.132 771.76 951.22 772.544 951.86 773.76C952.5 774.976 952.82 776.224 952.82 777.504C952.82 778.768 952.5 780.016 951.86 781.248C951.22 782.464 950.132 783.256 948.596 783.624C948.244 783.704 947.868 783.76 947.468 783.792C947.084 783.824 946.732 783.84 946.412 783.84H937.652ZM989.031 801H994.047V771.168H1005.54V766.44H977.535V771.168H989.031V801ZM1039.72 801.72C1042.44 801.72 1044.83 801.168 1046.9 800.064C1048.96 798.944 1050.58 797.376 1051.74 795.36C1052.91 793.344 1053.5 790.984 1053.5 788.28V766.44H1048.41V788.016C1048.41 789.952 1047.98 791.592 1047.14 792.936C1046.29 794.264 1045.2 795.272 1043.87 795.96C1042.56 796.648 1041.18 796.992 1039.72 796.992C1038.3 796.992 1036.91 796.656 1035.57 795.984C1034.24 795.296 1033.15 794.288 1032.3 792.96C1031.46 791.632 1031.03 789.984 1031.03 788.016V766.44L1025.94 766.464V788.28C1025.94 790.984 1026.53 793.344 1027.7 795.36C1028.86 797.376 1030.48 798.944 1032.54 800.064C1034.62 801.168 1037.02 801.72 1039.72 801.72ZM1076.77 801H1081.79V788.592H1090.95L1096.98 801H1102.71L1096.19 787.608C1098.15 786.76 1099.63 785.44 1100.6 783.648C1101.58 781.856 1102.07 779.808 1102.07 777.504C1102.07 774.704 1101.35 772.304 1099.91 770.304C1098.47 768.304 1096.3 767.08 1093.4 766.632C1092.95 766.552 1092.48 766.504 1091.99 766.488C1091.49 766.456 1091.07 766.44 1090.74 766.44H1076.77V801ZM1081.79 783.84V771.168H1090.55C1090.87 771.168 1091.22 771.184 1091.6 771.216C1092 771.248 1092.38 771.312 1092.73 771.408C1094.27 771.76 1095.35 772.544 1095.99 773.76C1096.63 774.976 1096.95 776.224 1096.95 777.504C1096.95 778.768 1096.63 780.016 1095.99 781.248C1095.35 782.464 1094.27 783.256 1092.73 783.624C1092.38 783.704 1092 783.76 1091.6 783.792C1091.22 783.824 1090.87 783.84 1090.55 783.84H1081.79ZM1125.03 801H1130.04V766.44H1125.03V801ZM1153.81 801H1158.9V775.296L1175.92 801H1181V766.44H1175.92V792.12L1158.9 766.44H1153.81V801ZM1218.4 801.72C1221.76 801.72 1224.61 801.008 1226.94 799.584C1229.29 798.144 1231.09 796.168 1232.32 793.656C1233.55 791.144 1234.17 788.288 1234.17 785.088C1234.17 784.96 1234.16 784.664 1234.14 784.2C1234.13 783.736 1234.1 783.352 1234.07 783.048H1222.02V787.08H1228.74C1228.39 790.28 1227.37 792.736 1225.67 794.448C1223.97 796.144 1221.65 796.976 1218.69 796.944C1215.02 796.912 1212.26 795.688 1210.41 793.272C1208.57 790.856 1207.65 787.672 1207.67 783.72C1207.69 781.08 1208.09 778.768 1208.89 776.784C1209.71 774.784 1210.93 773.232 1212.57 772.128C1214.2 771.024 1216.24 770.48 1218.69 770.496C1221.07 770.512 1223.05 771.136 1224.61 772.368C1226.18 773.6 1227.31 775.248 1228 777.312L1233.09 776.4C1232.21 773.072 1230.55 770.464 1228.12 768.576C1225.7 766.688 1222.46 765.744 1218.4 765.744C1215.25 765.744 1212.46 766.472 1210.05 767.928C1207.63 769.368 1205.74 771.432 1204.38 774.12C1203.02 776.792 1202.34 779.992 1202.34 783.72C1202.34 787.496 1203.04 790.728 1204.43 793.416C1205.82 796.104 1207.73 798.16 1210.14 799.584C1212.56 801.008 1215.31 801.72 1218.4 801.72ZM1290.01 801H1295.09V786.72L1306.78 766.44H1300.93L1292.55 780.96L1284.17 766.44H1278.32L1290.01 786.72V801ZM1339.19 801.72C1342.65 801.72 1345.59 800.96 1348.03 799.44C1350.46 797.92 1352.31 795.816 1353.59 793.128C1354.87 790.424 1355.51 787.288 1355.51 783.72C1355.51 780.152 1354.87 777.024 1353.59 774.336C1352.31 771.632 1350.46 769.52 1348.03 768C1345.59 766.48 1342.65 765.72 1339.19 765.72C1335.74 765.72 1332.79 766.48 1330.36 768C1327.93 769.52 1326.07 771.632 1324.77 774.336C1323.49 777.024 1322.85 780.152 1322.85 783.72C1322.85 787.288 1323.49 790.424 1324.77 793.128C1326.07 795.816 1327.93 797.92 1330.36 799.44C1332.79 800.96 1335.74 801.72 1339.19 801.72ZM1339.19 796.944C1335.53 796.912 1332.77 795.688 1330.91 793.272C1329.07 790.856 1328.16 787.672 1328.18 783.72C1328.19 781.08 1328.6 778.768 1329.4 776.784C1330.22 774.784 1331.44 773.232 1333.07 772.128C1334.71 771.008 1336.75 770.464 1339.19 770.496C1342.87 770.512 1345.63 771.728 1347.45 774.144C1349.27 776.56 1350.19 779.752 1350.19 783.72C1350.19 786.36 1349.78 788.68 1348.96 790.68C1348.16 792.664 1346.95 794.208 1345.31 795.312C1343.68 796.416 1341.64 796.96 1339.19 796.944ZM1390.64 801.72C1393.36 801.72 1395.75 801.168 1397.81 800.064C1399.88 798.944 1401.49 797.376 1402.66 795.36C1403.83 793.344 1404.41 790.984 1404.41 788.28V766.44H1399.33V788.016C1399.33 789.952 1398.9 791.592 1398.05 792.936C1397.21 794.264 1396.12 795.272 1394.79 795.96C1393.48 796.648 1392.09 796.992 1390.64 796.992C1389.21 796.992 1387.83 796.656 1386.49 795.984C1385.16 795.296 1384.07 794.288 1383.22 792.96C1382.37 791.632 1381.95 789.984 1381.95 788.016V766.44L1376.86 766.464V788.28C1376.86 790.984 1377.45 793.344 1378.61 795.36C1379.78 797.376 1381.4 798.944 1383.46 800.064C1385.54 801.168 1387.93 801.72 1390.64 801.72ZM1427.69 801H1432.7V788.592H1441.87L1447.89 801H1453.63L1447.1 787.608C1449.07 786.76 1450.54 785.44 1451.52 783.648C1452.49 781.856 1452.98 779.808 1452.98 777.504C1452.98 774.704 1452.26 772.304 1450.82 770.304C1449.38 768.304 1447.21 767.08 1444.32 766.632C1443.87 766.552 1443.4 766.504 1442.9 766.488C1442.41 766.456 1441.99 766.44 1441.65 766.44H1427.69V801ZM1432.7 783.84V771.168H1441.46C1441.78 771.168 1442.13 771.184 1442.52 771.216C1442.92 771.248 1443.29 771.312 1443.65 771.408C1445.18 771.76 1446.27 772.544 1446.91 773.76C1447.55 774.976 1447.87 776.224 1447.87 777.504C1447.87 778.768 1447.55 780.016 1446.91 781.248C1446.27 782.464 1445.18 783.256 1443.65 783.624C1443.29 783.704 1442.92 783.76 1442.52 783.792C1442.13 783.824 1441.78 783.84 1441.46 783.84H1432.7ZM1501.63 801H1516.51C1519.81 801 1522.35 800.08 1524.15 798.24C1525.95 796.4 1526.86 793.96 1526.86 790.92C1526.86 789.08 1526.4 787.44 1525.49 786C1524.58 784.56 1523.27 783.472 1521.55 782.736C1522.69 782.08 1523.59 781.144 1524.24 779.928C1524.9 778.712 1525.23 777.312 1525.23 775.728C1525.23 774.16 1524.85 772.672 1524.1 771.264C1523.35 769.84 1522.23 768.68 1520.74 767.784C1519.27 766.888 1517.43 766.44 1515.22 766.44H1501.63V801ZM1506.72 780.552V771.168H1515.15C1516.65 771.168 1517.85 771.6 1518.75 772.464C1519.64 773.328 1520.09 774.432 1520.09 775.776C1520.09 777.28 1519.61 778.456 1518.65 779.304C1517.71 780.136 1516.54 780.552 1515.15 780.552H1506.72ZM1506.72 796.224V785.28H1516.06C1517.79 785.28 1519.16 785.816 1520.19 786.888C1521.21 787.944 1521.72 789.256 1521.72 790.824C1521.72 792.504 1521.15 793.824 1520.02 794.784C1518.88 795.744 1517.46 796.224 1515.75 796.224H1506.72ZM1561.97 801.72C1564.69 801.72 1567.08 801.168 1569.15 800.064C1571.21 798.944 1572.83 797.376 1573.99 795.36C1575.16 793.344 1575.75 790.984 1575.75 788.28V766.44H1570.66V788.016C1570.66 789.952 1570.23 791.592 1569.39 792.936C1568.54 794.264 1567.45 795.272 1566.12 795.96C1564.81 796.648 1563.43 796.992 1561.97 796.992C1560.55 796.992 1559.16 796.656 1557.82 795.984C1556.49 795.296 1555.4 794.288 1554.55 792.96C1553.71 791.632 1553.28 789.984 1553.28 788.016V766.44L1548.19 766.464V788.28C1548.19 790.984 1548.78 793.344 1549.95 795.36C1551.11 797.376 1552.73 798.944 1554.79 800.064C1556.87 801.168 1559.27 801.72 1561.97 801.72ZM1610.1 801.72C1612.48 801.72 1614.67 801.32 1616.67 800.52C1618.69 799.72 1620.3 798.536 1621.52 796.968C1622.74 795.4 1623.34 793.456 1623.34 791.136C1623.34 789.456 1623.03 788.064 1622.41 786.96C1621.78 785.84 1620.99 784.944 1620.03 784.272C1619.09 783.6 1618.1 783.08 1617.08 782.712C1616.07 782.328 1615.17 782.024 1614.37 781.8L1607.98 780C1607.17 779.776 1606.34 779.496 1605.51 779.16C1604.7 778.808 1604.01 778.336 1603.45 777.744C1602.89 777.152 1602.61 776.376 1602.61 775.416C1602.61 774.424 1602.92 773.56 1603.54 772.824C1604.18 772.072 1605.03 771.488 1606.09 771.072C1607.16 770.656 1608.34 770.464 1609.62 770.496C1611.6 770.512 1613.35 771.08 1614.87 772.2C1616.41 773.304 1617.36 774.832 1617.73 776.784L1623.1 775.872C1622.4 772.688 1620.86 770.216 1618.5 768.456C1616.13 766.68 1613.19 765.776 1609.69 765.744C1607.37 765.728 1605.27 766.104 1603.4 766.872C1601.53 767.64 1600.04 768.76 1598.94 770.232C1597.85 771.704 1597.3 773.512 1597.3 775.656C1597.3 777.512 1597.7 779.016 1598.48 780.168C1599.26 781.32 1600.24 782.216 1601.41 782.856C1602.59 783.496 1603.76 783.984 1604.91 784.32L1613.77 786.936C1615.05 787.32 1616.09 787.864 1616.89 788.568C1617.7 789.256 1618.11 790.224 1618.11 791.472C1618.11 792.624 1617.75 793.616 1617.03 794.448C1616.33 795.264 1615.39 795.896 1614.22 796.344C1613.06 796.776 1611.78 796.992 1610.38 796.992C1608.14 796.992 1606.18 796.408 1604.5 795.24C1602.82 794.072 1601.72 792.424 1601.19 790.296L1595.96 791.088C1596.34 793.28 1597.18 795.176 1598.46 796.776C1599.74 798.36 1601.38 799.584 1603.38 800.448C1605.38 801.296 1607.62 801.72 1610.1 801.72ZM1645.5 801H1650.51V766.44H1645.5V801ZM1674.28 801H1679.37V775.296L1696.39 801H1701.47V766.44H1696.39V792.12L1679.37 766.44H1674.28V801ZM1724.73 801H1746.81V796.272H1729.75V785.592H1743.93V780.864H1729.75V771.168H1746.81V766.44H1724.73V801ZM1781.01 801.72C1783.39 801.72 1785.58 801.32 1787.58 800.52C1789.6 799.72 1791.22 798.536 1792.43 796.968C1793.65 795.4 1794.26 793.456 1794.26 791.136C1794.26 789.456 1793.94 788.064 1793.32 786.96C1792.7 785.84 1791.9 784.944 1790.94 784.272C1790 783.6 1789.02 783.08 1787.99 782.712C1786.98 782.328 1786.08 782.024 1785.28 781.8L1778.9 780C1778.08 779.776 1777.26 779.496 1776.42 779.16C1775.61 778.808 1774.92 778.336 1774.36 777.744C1773.8 777.152 1773.52 776.376 1773.52 775.416C1773.52 774.424 1773.83 773.56 1774.46 772.824C1775.1 772.072 1775.94 771.488 1777 771.072C1778.07 770.656 1779.25 770.464 1780.53 770.496C1782.51 770.512 1784.26 771.08 1785.78 772.2C1787.32 773.304 1788.27 774.832 1788.64 776.784L1794.02 775.872C1793.31 772.688 1791.78 770.216 1789.41 768.456C1787.04 766.68 1784.1 765.776 1780.6 765.744C1778.28 765.728 1776.18 766.104 1774.31 766.872C1772.44 767.64 1770.95 768.76 1769.85 770.232C1768.76 771.704 1768.22 773.512 1768.22 775.656C1768.22 777.512 1768.61 779.016 1769.39 780.168C1770.18 781.32 1771.15 782.216 1772.32 782.856C1773.5 783.496 1774.67 783.984 1775.82 784.32L1784.68 786.936C1785.96 787.32 1787 787.864 1787.8 788.568C1788.62 789.256 1789.02 790.224 1789.02 791.472C1789.02 792.624 1788.66 793.616 1787.94 794.448C1787.24 795.264 1786.3 795.896 1785.14 796.344C1783.97 796.776 1782.69 796.992 1781.3 796.992C1779.06 796.992 1777.1 796.408 1775.42 795.24C1773.74 794.072 1772.63 792.424 1772.1 790.296L1766.87 791.088C1767.26 793.28 1768.09 795.176 1769.37 796.776C1770.65 798.36 1772.29 799.584 1774.29 800.448C1776.29 801.296 1778.53 801.72 1781.01 801.72ZM1829.16 801.72C1831.55 801.72 1833.74 801.32 1835.74 800.52C1837.75 799.72 1839.37 798.536 1840.59 796.968C1841.8 795.4 1842.41 793.456 1842.41 791.136C1842.41 789.456 1842.1 788.064 1841.47 786.96C1840.85 785.84 1840.06 784.944 1839.1 784.272C1838.15 783.6 1837.17 783.08 1836.15 782.712C1835.14 782.328 1834.23 782.024 1833.43 781.8L1827.05 780C1826.23 779.776 1825.41 779.496 1824.58 779.16C1823.76 778.808 1823.07 778.336 1822.51 777.744C1821.95 777.152 1821.67 776.376 1821.67 775.416C1821.67 774.424 1821.99 773.56 1822.61 772.824C1823.25 772.072 1824.1 771.488 1825.15 771.072C1826.23 770.656 1827.4 770.464 1828.68 770.496C1830.67 770.512 1832.42 771.08 1833.94 772.2C1835.47 773.304 1836.43 774.832 1836.79 776.784L1842.17 775.872C1841.47 772.688 1839.93 770.216 1837.56 768.456C1835.19 766.68 1832.26 765.776 1828.75 765.744C1826.43 765.728 1824.34 766.104 1822.47 766.872C1820.59 767.64 1819.11 768.76 1818 770.232C1816.91 771.704 1816.37 773.512 1816.37 775.656C1816.37 777.512 1816.76 779.016 1817.55 780.168C1818.33 781.32 1819.31 782.216 1820.47 782.856C1821.66 783.496 1822.83 783.984 1823.98 784.32L1832.83 786.936C1834.11 787.32 1835.15 787.864 1835.95 788.568C1836.77 789.256 1837.18 790.224 1837.18 791.472C1837.18 792.624 1836.82 793.616 1836.1 794.448C1835.39 795.264 1834.46 795.896 1833.29 796.344C1832.12 796.776 1830.84 796.992 1829.45 796.992C1827.21 796.992 1825.25 796.408 1823.57 795.24C1821.89 794.072 1820.79 792.424 1820.26 790.296L1815.03 791.088C1815.41 793.28 1816.24 795.176 1817.52 796.776C1818.8 798.36 1820.44 799.584 1822.44 800.448C1824.44 801.296 1826.68 801.72 1829.16 801.72Z" fill="#EBDD79"/>
<defs>
<filter id="filter0_d" x="209.214" y="434.228" width="358.668" height="321.288" filterUnits="userSpaceOnUse" color-interpolation-filters="sRGB">
<feFlood flood-opacity="0" result="BackgroundImageFix"/>
<feColorMatrix in="SourceAlpha" type="matrix" values="0 0 0 0 0 0 0 0 0 0 0 0 0 0 0 0 0 0 127 0"/>
<feOffset dy="4"/>
<feGaussianBlur stdDeviation="5"/>
<feColorMatrix type="matrix" values="0 0 0 0 0.0784314 0 0 0 0 0.129412 0 0 0 0 0.164706 0 0 0 0.47 0"/>
<feBlend mode="normal" in2="BackgroundImageFix" result="effect1_dropShadow"/>
<feBlend mode="normal" in="SourceGraphic" in2="effect1_dropShadow" result="shape"/>
</filter>
<linearGradient id="paint0_linear" x1="828" y1="562.5" x2="1803" y2="562.5" gradientUnits="userSpaceOnUse">
<stop offset="0.03125" stop-color="#ECC765"/>
<stop offset="0.223958" stop-color="#D2AC47"/>
<stop offset="0.786458" stop-color="#EBDD79"/>
<stop offset="1" stop-color="#B38E2C"/>
</linearGradient>
<linearGradient id="paint1_linear" x1="828" y1="562.5" x2="1803" y2="562.5" gradientUnits="userSpaceOnUse">
<stop offset="0.03125" stop-color="#ECC765"/>
<stop offset="0.223958" stop-color="#D2AC47"/>
<stop offset="0.786458" stop-color="#EBDD79"/>
<stop offset="1" stop-color="#B38E2C"/>
</linearGradient>
<linearGradient id="paint2_linear" x1="828" y1="562.5" x2="1803" y2="562.5" gradientUnits="userSpaceOnUse">
<stop offset="0.03125" stop-color="#ECC765"/>
<stop offset="0.223958" stop-color="#D2AC47"/>
<stop offset="0.786458" stop-color="#EBDD79"/>
<stop offset="1" stop-color="#B38E2C"/>
</linearGradient>
<linearGradient id="paint3_linear" x1="828" y1="562.5" x2="1803" y2="562.5" gradientUnits="userSpaceOnUse">
<stop offset="0.03125" stop-color="#ECC765"/>
<stop offset="0.223958" stop-color="#D2AC47"/>
<stop offset="0.786458" stop-color="#EBDD79"/>
<stop offset="1" stop-color="#B38E2C"/>
</linearGradient>
<linearGradient id="paint4_linear" x1="828" y1="562.5" x2="1803" y2="562.5" gradientUnits="userSpaceOnUse">
<stop offset="0.03125" stop-color="#ECC765"/>
<stop offset="0.223958" stop-color="#D2AC47"/>
<stop offset="0.786458" stop-color="#EBDD79"/>
<stop offset="1" stop-color="#B38E2C"/>
</linearGradient>
<linearGradient id="paint5_linear" x1="828" y1="562.5" x2="1803" y2="562.5" gradientUnits="userSpaceOnUse">
<stop offset="0.03125" stop-color="#ECC765"/>
<stop offset="0.223958" stop-color="#D2AC47"/>
<stop offset="0.786458" stop-color="#EBDD79"/>
<stop offset="1" stop-color="#B38E2C"/>
</linearGradient>
<linearGradient id="paint6_linear" x1="521.194" y1="801.241" x2="633.607" y2="394.966" gradientUnits="userSpaceOnUse">
<stop stop-color="#14212A"/>
<stop offset="1" stop-color="#FFC13E"/>
</linearGradient>
<linearGradient id="paint7_linear" x1="256.696" y1="533.266" x2="256.696" y2="742.383" gradientUnits="userSpaceOnUse">
<stop offset="0.09375" stop-color="#EAC563"/>
<stop offset="0.328125" stop-color="#D7B24D"/>
<stop offset="0.723958" stop-color="#F2E883"/>
<stop offset="0.947917" stop-color="#B79331"/>
</linearGradient>
<linearGradient id="paint8_linear" x1="432.14" y1="405.055" x2="432.14" y2="742.382" gradientUnits="userSpaceOnUse">
<stop offset="0.09375" stop-color="#EAC563"/>
<stop offset="0.328125" stop-color="#D7B24D"/>
<stop offset="0.723958" stop-color="#F2E883"/>
<stop offset="0.947917" stop-color="#B79331"/>
</linearGradient>
<linearGradient id="paint9_linear" x1="344.418" y1="486.353" x2="344.418" y2="742.382" gradientUnits="userSpaceOnUse">
<stop offset="0.09375" stop-color="#EAC563"/>
<stop offset="0.328125" stop-color="#D7B24D"/>
<stop offset="0.723958" stop-color="#F2E883"/>
<stop offset="0.947917" stop-color="#B79331"/>
</linearGradient>
<linearGradient id="paint10_linear" x1="519.862" y1="373.785" x2="519.862" y2="742.382" gradientUnits="userSpaceOnUse">
<stop offset="0.09375" stop-color="#EAC563"/>
<stop offset="0.328125" stop-color="#D7B24D"/>
<stop offset="0.723958" stop-color="#F2E883"/>
<stop offset="0.947917" stop-color="#B79331"/>
</linearGradient>
<linearGradient id="paint11_linear" x1="548.436" y1="615.243" x2="627.412" y2="333.681" gradientUnits="userSpaceOnUse">
<stop stop-color="#FFDD29"/>
<stop offset="1" stop-color="#FF9929"/>
</linearGradient>
<linearGradient id="paint12_linear" x1="628.751" y1="805.559" x2="147" y2="805.559" gradientUnits="userSpaceOnUse">
<stop stop-color="#AE8625"/>
<stop offset="0.244792" stop-color="#F7EF8A"/>
<stop offset="0.677083" stop-color="#D2AC47"/>
<stop offset="0.90625" stop-color="#EDC967"/>
</linearGradient>
<linearGradient id="paint13_linear" x1="266.213" y1="625.106" x2="534.034" y2="450.37" gradientUnits="userSpaceOnUse">
<stop offset="0.0208333" stop-color="#ECC765"/>
<stop offset="0.223958" stop-color="#D5AF4A"/>
<stop offset="0.692708" stop-color="#EFE17C"/>
<stop offset="1" stop-color="#B38E2C"/>
</linearGradient>
</defs>
</svg>
