<svg width="45" height="45" viewBox="0 0 45 45" fill="none" xmlns="http://www.w3.org/2000/svg">
<path d="M9.97297 27.1942L8.40658 33.0418L2.68146 33.1629C0.97049 29.9894 0 26.3585 0 22.5001C0 18.7691 0.907384 15.2506 2.51579 12.1526H2.51702L7.61398 13.087L9.84675 18.1534C9.37944 19.5158 9.12473 20.9783 9.12473 22.5001C9.12491 24.1518 9.42409 25.7343 9.97297 27.1942Z" fill="#FBBB00"/>
<path d="M44.6069 18.2966C44.8653 19.6577 45.0001 21.0633 45.0001 22.4999C45.0001 24.1108 44.8307 25.6821 44.5081 27.1978C43.4128 32.3555 40.5508 36.8592 36.5861 40.0463L36.5849 40.045L30.165 39.7175L29.2564 34.0454C31.8871 32.5026 33.9431 30.0881 35.0261 27.1978H22.9947V18.2966H35.2016H44.6069Z" fill="#518EF8"/>
<path d="M36.5848 40.045L36.586 40.0463C32.7302 43.1456 27.832 45 22.5 45C13.9315 45 6.48177 40.2107 2.68146 33.1628L9.97296 27.1941C11.8731 32.2652 16.765 35.8751 22.5 35.8751C24.9651 35.8751 27.2745 35.2088 29.2562 34.0454L36.5848 40.045Z" fill="#28B446"/>
<path d="M36.8618 5.17993L29.5727 11.1474C27.5218 9.86539 25.0974 9.12482 22.5001 9.12482C16.6352 9.12482 11.6518 12.9003 9.84686 18.1533L2.51704 12.1525H2.51581C6.26048 4.93269 13.8041 0 22.5001 0C27.9594 0 32.965 1.94467 36.8618 5.17993Z" fill="#F14336"/>
</svg>
