<svg width="48" height="48" viewBox="0 0 48 48" fill="none" xmlns="http://www.w3.org/2000/svg">
<path d="M14.3999 4.8006H4V6.40058H14.3999V4.8006Z" fill="black"/>
<path d="M14.3999 8.00055H4V9.60053H14.3999V8.00055Z" fill="black"/>
<path d="M11.1999 11.2005H4V12.8005H11.1999V11.2005Z" fill="black"/>
<path d="M11.1999 14.4005H4V16.0005H11.1999V14.4005Z" fill="black"/>
<path d="M47.9994 46.4001H0V48.0001H47.9994V46.4001Z" fill="black"/>
<path d="M46.3155 6.84297L43.1156 0.44305C42.9183 0.0476545 42.438 -0.112943 42.0426 0.0843541C42.0424 0.0844541 42.0422 0.0845541 42.042 0.0846541L35.6421 3.28461C35.2467 3.48211 35.0862 3.96281 35.2837 4.3582C35.4812 4.7536 35.9619 4.91409 36.3573 4.7166L40.9924 2.40062L39.7276 6.01178C34.1684 21.8444 19.8497 32.9518 3.13208 34.4002L3.26808 36.0002C20.6156 34.4974 35.4731 22.9699 41.2388 6.53977L42.53 2.85022L44.8836 7.55816C45.0811 7.95356 45.5618 8.11405 45.9571 7.91656C46.3526 7.71906 46.513 7.23846 46.3155 6.84297Z" fill="black"/>
<path d="M9.59987 38.4002H3.99994C3.55815 38.4002 3.19995 38.7584 3.19995 39.2002V44.0001C3.19995 44.4419 3.55815 44.8001 3.99994 44.8001H9.59987C10.0417 44.8001 10.3999 44.4419 10.3999 44.0001V39.2002C10.3999 38.7584 10.0417 38.4002 9.59987 38.4002ZM8.79988 43.2001H4.79993V40.0002H8.79988V43.2001Z" fill="#FFC13E"/>
<path d="M18.3999 36.0002H12.8C12.3582 36.0002 12 36.3584 12 36.8002V44.0001C12 44.4419 12.3582 44.8001 12.8 44.8001H18.3999C18.8417 44.8001 19.1999 44.4419 19.1999 44.0001V36.8002C19.1999 36.3584 18.8417 36.0002 18.3999 36.0002ZM17.5999 43.2001H13.6V37.6002H17.5999V43.2001Z" fill="#FFC13E"/>
<path d="M27.1997 32.0003H21.5998C21.158 32.0003 20.7998 32.3585 20.7998 32.8003V44.0001C20.7998 44.4419 21.158 44.8001 21.5998 44.8001H27.1997C27.6415 44.8001 27.9997 44.4419 27.9997 44.0001V32.8003C27.9997 32.3585 27.6415 32.0003 27.1997 32.0003ZM26.3997 43.2001H22.3998V33.6003H26.3997V43.2001Z" fill="#FFC13E"/>
<path d="M35.9998 26.4003H30.3998C29.958 26.4003 29.5999 26.7585 29.5999 27.2003V44.0001C29.5999 44.4419 29.958 44.8001 30.3998 44.8001H35.9998C36.4416 44.8001 36.7998 44.4419 36.7998 44.0001V27.2003C36.7998 26.7585 36.4416 26.4003 35.9998 26.4003ZM35.1998 43.2001H31.1998V28.0003H35.1998V43.2001Z" fill="#FFC13E"/>
<path d="M44.7996 15.2005H39.1996C38.7579 15.2005 38.3997 15.5587 38.3997 16.0005V44.0001C38.3997 44.4419 38.7579 44.8001 39.1996 44.8001H44.7996C45.2414 44.8001 45.5996 44.4419 45.5996 44.0001V16.0005C45.5996 15.5587 45.2414 15.2005 44.7996 15.2005ZM43.9996 43.2001H39.9996V16.8005H43.9996V43.2001Z" fill="#FFC13E"/>
</svg>
