<svg width="45" height="45" viewBox="0 0 45 45" fill="none" xmlns="http://www.w3.org/2000/svg">
<path d="M22.5 45C34.9358 45 45 34.9368 45 22.5C45 10.0642 34.9368 0 22.5 0C10.0642 0 0 10.0632 0 22.5C0 34.9358 10.0632 45 22.5 45ZM22.5 1.31835C34.1797 1.31835 43.6816 10.8204 43.6816 22.5C43.6816 34.1796 34.1797 43.6816 22.5 43.6816C10.8203 43.6816 1.31835 34.1796 1.31835 22.5C1.31835 10.8204 10.8203 1.31835 22.5 1.31835Z" fill="#FFC13E"/>
<path d="M5.66876 13.9755C5.98736 14.1516 6.38841 14.036 6.56445 13.7173C7.20016 12.5665 7.95022 11.5025 8.79528 10.5354H11.0957C10.6269 11.3527 10.2023 12.2262 9.82887 13.152C9.69264 13.4896 9.85594 13.8736 10.1935 14.0099C10.5311 14.146 10.9152 13.9828 11.0514 13.6451C11.5045 12.522 12.0363 11.4823 12.6336 10.5354H17.2037C16.9842 11.3966 16.7878 12.3155 16.618 13.2849C16.5553 13.6435 16.7951 13.985 17.1537 14.0478C17.5121 14.1107 17.8539 13.8707 17.9167 13.5122C18.1084 12.4168 18.3262 11.4257 18.563 10.5354H26.437C26.6737 11.4257 26.8915 12.4168 27.0832 13.5122C27.1461 13.871 27.4878 14.1106 27.8462 14.0478C28.2048 13.9851 28.4446 13.6435 28.3819 13.2849C28.2123 12.3155 28.0157 11.3966 27.7962 10.5354H32.3663C32.9636 11.4822 33.4954 12.5221 33.9486 13.6451C34.0848 13.9826 34.4687 14.146 34.8065 14.0098C35.1442 13.8736 35.3074 13.4895 35.1712 13.1519C34.7977 12.2261 34.3731 11.3527 33.9043 10.5354H36.2047C37.0497 11.5024 37.7998 12.5665 38.4355 13.7173C38.6115 14.0359 39.0124 14.1516 39.3312 13.9755C39.6499 13.7995 39.7654 13.3985 39.5895 13.0798C36.1512 6.85526 29.6029 2.98853 22.5 2.98853C15.3972 2.98853 8.84881 6.85526 5.41045 13.0798C5.23449 13.3985 5.35007 13.7995 5.66876 13.9755ZM34.93 9.21705H33.0763C32.2395 7.99915 31.295 6.93664 30.2681 6.05097C31.9722 6.85631 33.5464 7.92356 34.93 9.21705ZM31.4465 9.21705H27.4286C26.9708 7.72019 26.2994 6.00123 25.3601 4.74791C27.6411 5.45974 29.743 7.00933 31.4465 9.21705ZM22.5 4.30688C23.5908 4.30688 24.9597 5.8548 26.0497 9.21705H18.9503C20.0403 5.8548 21.4092 4.30688 22.5 4.30688ZM19.6399 4.74791C18.7009 6.00088 18.0296 7.71931 17.5714 9.21705H13.5536C15.2571 7.00933 17.359 5.45974 19.6399 4.74791ZM14.7319 6.05097C13.7051 6.93673 12.7605 7.99915 11.9238 9.21705H10.0701C11.4536 7.92356 13.0277 6.85631 14.7319 6.05097Z" fill="#FFC13E"/>
<path d="M22.5 42.0118C29.6028 42.0118 36.1512 38.1451 39.5895 31.9205C39.7655 31.6018 39.6499 31.2009 39.3312 31.0248C39.0126 30.8488 38.6116 30.9643 38.4355 31.283C37.7998 32.4339 37.0498 33.4979 36.2047 34.4649H33.9044C34.3732 33.6476 34.7978 32.7742 35.1712 31.8484C35.3074 31.5108 35.1441 31.1267 34.8066 30.9905C34.4687 30.8542 34.0849 31.0176 33.9487 31.3552C33.4956 32.4783 32.9637 33.5181 32.3664 34.4649H27.7962C28.0157 33.6037 28.2121 32.6848 28.3819 31.7154C28.4446 31.3569 28.2048 31.0153 27.8462 30.9525C27.4878 30.8898 27.146 31.1295 27.0832 31.4882C26.8915 32.5835 26.6737 33.5746 26.4369 34.4649H18.5629C18.3262 33.5746 18.1085 32.5835 17.9167 31.4882C17.8539 31.1296 17.5134 30.8895 17.1537 30.9525C16.7951 31.0152 16.5553 31.3569 16.618 31.7154C16.7876 32.6848 16.9842 33.6037 17.2037 34.4649H12.6336C12.0363 33.5181 11.5045 32.4783 11.0514 31.3552C10.9152 31.0175 10.5311 30.8542 10.1935 30.9904C9.85582 31.1267 9.69261 31.5108 9.82884 31.8483C10.2023 32.7741 10.6269 33.6475 11.0957 34.4649H8.79525C7.95018 33.4979 7.20013 32.4339 6.56442 31.283C6.38837 30.9644 5.98742 30.8488 5.66873 31.0248C5.35004 31.2009 5.23446 31.6018 5.41042 31.9205C8.84877 38.1451 15.3971 42.0118 22.5 42.0118ZM33.0763 35.7833H34.93C33.5465 37.0768 31.9723 38.144 30.2681 38.9493C31.295 38.0637 32.2395 37.0012 33.0763 35.7833ZM27.4285 35.7833H31.4463C29.7428 37.9911 27.6409 39.5406 25.36 40.2524C26.299 38.9994 26.9704 37.281 27.4285 35.7833ZM26.0497 35.7833C24.9596 39.1455 23.5907 40.6934 22.5 40.6934C21.4093 40.6934 20.0403 39.1455 18.9503 35.7833H26.0497ZM17.5714 35.7833C18.0293 37.2801 18.7007 38.9991 19.6399 40.2524C17.359 39.5406 15.2571 37.9911 13.5536 35.7833H17.5714ZM11.9238 35.7833C12.7605 37.0012 13.7051 38.0637 14.7319 38.9493C13.0278 38.144 11.4536 37.0768 10.07 35.7833H11.9238Z" fill="#FFC13E"/>
<path d="M8.28738 17.0439V27.9559C8.28738 29.0464 9.17455 29.9335 10.2649 29.9335C11.3553 29.9335 12.2425 29.0464 12.2425 27.9559V17.0439C12.2425 15.9535 11.3553 15.0664 10.2649 15.0664C9.17455 15.0664 8.28738 15.9536 8.28738 17.0439ZM10.9241 17.0439V27.9559C10.9241 28.3194 10.6284 28.6151 10.2649 28.6151C9.90141 28.6151 9.60574 28.3194 9.60574 27.9559V17.0439C9.60574 16.6804 9.90141 16.3848 10.2649 16.3848C10.6284 16.3848 10.9241 16.6805 10.9241 17.0439Z" fill="#FFC13E"/>
<path d="M19.8974 28.4173C19.5492 28.5235 19.353 28.8918 19.4592 29.24C19.5651 29.5876 19.9328 29.7846 20.2819 29.6783C22.4418 29.0197 23.8929 27.21 23.8929 25.1748C23.8929 23.8184 23.2585 22.585 22.2322 21.7757C23.1654 21.6175 23.8783 20.8033 23.8783 19.8259C23.8783 17.2018 21.4855 15.0669 18.5444 15.0669C15.6033 15.0669 13.2104 17.2018 13.2104 19.8259C13.2104 21.1822 13.8447 22.4158 14.8711 23.2251C13.938 23.3832 13.225 24.1973 13.225 25.1748C13.225 27.203 14.6696 29.0109 16.8194 29.6734C17.167 29.7804 17.5361 29.5855 17.6435 29.2377C17.7508 28.8898 17.5556 28.5208 17.2077 28.4136C15.6141 27.9226 14.5434 26.621 14.5434 25.1749C14.5434 24.8115 14.839 24.5158 15.2026 24.5158C15.5661 24.5158 15.8617 24.8115 15.8617 25.1749C15.8617 26.3452 17.0718 27.2972 18.559 27.2972C20.0462 27.2972 21.2562 26.3451 21.2562 25.1749C21.2562 24.369 20.6971 23.6933 19.865 23.4936L16.9307 22.7893C15.5164 22.45 14.5287 21.2314 14.5287 19.826C14.5287 17.9288 16.3301 16.3853 18.5443 16.3853C20.7585 16.3853 22.5599 17.9289 22.5599 19.826C22.5599 20.1895 22.2642 20.4852 21.9007 20.4852C21.5372 20.4852 21.2415 20.1895 21.2415 19.826C21.2415 18.6557 20.0315 17.7037 18.5443 17.7037C17.0571 17.7037 15.8471 18.6558 15.8471 19.826C15.8471 20.632 16.4061 21.3077 17.2383 21.5073L20.1726 22.2116C21.5869 22.551 22.5746 23.7696 22.5746 25.1749C22.5746 26.626 21.4986 27.9291 19.8974 28.4173ZM19.5574 24.7754C19.6467 24.7968 19.9378 24.8889 19.9378 25.1748C19.9378 25.5465 19.3354 25.9787 18.559 25.9787C17.7824 25.9787 17.1801 25.5465 17.1801 25.1748C17.1801 24.793 17.0714 24.4361 16.8832 24.1335L19.5574 24.7754ZM17.5459 20.2253C17.4566 20.2038 17.1654 20.1117 17.1654 19.8259C17.1654 19.4541 17.7678 19.022 18.5443 19.022C19.3209 19.022 19.9232 19.4541 19.9232 19.8259C19.9232 20.2077 20.0319 20.5645 20.2201 20.8671L17.5459 20.2253Z" fill="#FFC13E"/>
<path d="M30.5703 17.7031C28.6146 17.7031 27.0236 19.855 27.0236 22.4999C27.0236 25.1449 28.6146 27.2967 30.5703 27.2967C32.526 27.2967 34.117 25.1449 34.117 22.4999C34.117 19.855 32.526 17.7031 30.5703 17.7031ZM30.5703 25.9784C29.3832 25.9784 28.3419 24.3529 28.3419 22.4999C28.3419 20.6469 29.3832 19.0215 30.5703 19.0215C31.7573 19.0215 32.7987 20.6469 32.7987 22.4999C32.7987 24.3529 31.7574 25.9784 30.5703 25.9784Z" fill="#FFC13E"/>
<path d="M36.0723 21.6096C36.43 21.542 36.6653 21.1973 36.5978 20.8396C35.9559 17.4404 33.4773 15.0664 30.5703 15.0664C27.0134 15.0664 24.3869 18.517 24.3869 22.4999C24.3869 26.4851 27.0154 29.9335 30.5703 29.9335C33.4775 29.9335 35.9561 27.5595 36.5979 24.1604C36.6654 23.8027 36.4302 23.4579 36.0724 23.3904C35.7146 23.3229 35.3698 23.5581 35.3023 23.9159C34.78 26.6827 32.834 28.6151 30.5702 28.6151C27.8876 28.6151 25.7051 25.8719 25.7051 22.4999C25.7051 19.128 27.8876 16.3848 30.5702 16.3848C32.8338 16.3848 34.7797 18.3172 35.3022 21.0842C35.3698 21.442 35.7153 21.6774 36.0723 21.6096Z" fill="#FFC13E"/>
</svg>
