<svg width="39" height="48" viewBox="0 0 39 48" fill="none" xmlns="http://www.w3.org/2000/svg">
<path d="M14.4 18.4H20.8V20H14.4V18.4Z" fill="#FFC13E"/>
<path d="M4.8 18.4H12V20H4.8V18.4Z" fill="#FFC13E"/>
<path d="M18.4 21.6H32V23.2H18.4V21.6Z" fill="#FFC13E"/>
<path d="M9.59999 21.6H16V23.2H9.59999V21.6Z" fill="#FFC13E"/>
<path d="M4.8 21.6H8V23.2H4.8V21.6Z" fill="#FFC13E"/>
<path d="M12.8 26.4H24V28H12.8V26.4Z" fill="#FFC13E"/>
<path d="M28 32H32V33.6H28V32Z" fill="#FFC13E"/>
<path d="M16 32H25.6V33.6H16V32Z" fill="#FFC13E"/>
<path d="M4.8 32H13.6V33.6H4.8V32Z" fill="#FFC13E"/>
<path d="M22.4 35.2H32V36.8H22.4V35.2Z" fill="#FFC13E"/>
<path d="M10.4 35.2H20V36.8H10.4V35.2Z" fill="#FFC13E"/>
<path d="M4.8 35.2H8V36.8H4.8V35.2Z" fill="#FFC13E"/>
<path d="M28.8 38.4H32V40H28.8V38.4Z" fill="#FFC13E"/>
<path d="M14.4 38.4H26.4V40H14.4V38.4Z" fill="#FFC13E"/>
<path d="M4.8 38.4H12V40H4.8V38.4Z" fill="#FFC13E"/>
<path d="M29.6 41.6H32V43.2H29.6V41.6Z" fill="#FFC13E"/>
<path d="M19.2 41.6H27.2V43.2H19.2V41.6Z" fill="#FFC13E"/>
<path d="M4.8 41.6H16.8V43.2H4.8V41.6Z" fill="#FFC13E"/>
<path d="M4 48H34.4C35.4605 47.9988 36.4772 47.577 37.2271 46.8271C37.977 46.0772 38.3988 45.0605 38.4 44V14.1255C38.4014 13.6 38.2986 13.0794 38.0975 12.5939C37.8964 12.1084 37.601 11.6676 37.2284 11.2971L27.103 1.1716L27.1029 1.17155C26.7323 0.798971 26.2915 0.50359 25.806 0.302497C25.3205 0.101404 24.8 -0.00140643 24.2745 1.45305e-05H4C2.9395 0.00121932 1.92279 0.423034 1.1729 1.17292C0.423019 1.9228 0.00120479 2.93952 0 4.00001V44C0.00120479 45.0605 0.423019 46.0772 1.1729 46.8271C1.92279 47.577 2.9395 47.9988 4 48ZM1.6 4.00001C1.60073 3.36372 1.85382 2.75369 2.30375 2.30376C2.75368 1.85383 3.3637 1.60074 4 1.60001H24.2745C24.4513 1.60012 24.6275 1.61961 24.8 1.65811V9.60001C24.8012 10.6605 25.223 11.6772 25.9729 12.4271C26.7228 13.177 27.7395 13.5988 28.8 13.6H33.6V12H28.8C28.1637 11.9993 27.5537 11.7462 27.1037 11.2963C26.6538 10.8463 26.4007 10.2363 26.4 9.60001V2.73136L36.0971 12.4285C36.3206 12.6508 36.4979 12.9153 36.6185 13.2066C36.7392 13.4979 36.8009 13.8102 36.8 14.1255V44C36.7993 44.6363 36.5462 45.2463 36.0962 45.6963C35.6463 46.1462 35.0363 46.3993 34.4 46.4H4C3.3637 46.3993 2.75368 46.1462 2.30375 45.6963C1.85382 45.2463 1.60073 44.6363 1.6 44V4.00001Z" fill="black"/>
<path d="M5.12002 13.44L8.32002 15.84C8.45849 15.9439 8.62691 16 8.8 16H12C12.1731 16 12.3415 15.9439 12.48 15.84L15.68 13.44C15.7793 13.3655 15.86 13.2689 15.9155 13.1578C15.9711 13.0467 16 12.9242 16 12.8V8.00002C16 7.86832 15.9675 7.73866 15.9053 7.62254C15.8432 7.50642 15.7533 7.40745 15.6437 7.3344L10.8438 4.1344C10.7123 4.04677 10.5579 4 10.4 4C10.2421 4 10.0877 4.04677 9.95625 4.1344L5.15625 7.3344C5.04667 7.40745 4.95681 7.50642 4.89466 7.62254C4.83252 7.73866 4.8 7.86832 4.8 8.00002V12.8C4.8 12.9242 4.82892 13.0467 4.88446 13.1578C4.94001 13.2689 5.02066 13.3655 5.12002 13.44ZM11.7333 14.4H9.0667L6.4 12.4V9.49482L9.95625 11.8656C10.0877 11.9533 10.2421 12 10.4 12C10.5579 12 10.7123 11.9533 10.8438 11.8656L14.4 9.49482V12.4L11.7333 14.4ZM10.4 5.7615L13.7578 8.00002L10.4 10.2385L7.04219 8.00002L10.4 5.7615Z" fill="black"/>
</svg>
