<svg width="42" height="45" viewBox="0 0 42 45" fill="none" xmlns="http://www.w3.org/2000/svg">
<path d="M5.32182 34.9953C4.95685 34.9953 4.66096 34.6994 4.66096 34.3344C4.66096 33.9695 4.95685 33.6736 5.32182 33.6736C5.68679 33.6736 5.98268 33.9695 5.98268 34.3344C5.98268 34.6994 5.68679 34.9953 5.32182 34.9953Z" fill="black"/>
<path d="M40.9034 23.7259C40.2697 22.6272 38.7547 22.1713 37.5975 22.8388L29.1499 27.7169C28.8734 26.6846 27.9298 25.9224 26.8116 25.9224H22.7785C21.1506 25.2257 19.3868 24.5592 17.5965 24.5592C14.1264 24.5592 11.1762 26.9823 9.44215 29.8198L8.14264 28.5203C7.88447 28.2623 7.4661 28.2623 7.20801 28.5203L5.79862 29.9296L5.07493 29.206C4.76336 28.948 4.45179 28.948 4.1403 29.206L0.193566 33.1528C-0.0645219 33.411 -0.0645219 33.8293 0.193566 34.0874L10.9124 44.8064C11.224 45.0644 11.5356 45.0644 11.8471 44.8064L17.6706 38.9828C17.9286 38.6712 17.9287 38.3597 17.6706 38.0482L16.3794 36.7569H19.5096C19.8747 36.7569 20.1705 36.4611 20.1705 36.0961C20.1705 35.731 19.8747 35.4352 19.5096 35.4352H15.0578L10.4075 30.7851C11.1189 29.5455 13.5637 25.881 17.5965 25.881C19.4007 25.881 20.985 27.2441 22.6551 27.2441H26.8116C28.1732 27.2441 28.2894 29.441 26.8115 29.441H18.8318C18.4668 29.441 18.171 29.7369 18.171 30.1019C18.171 30.467 18.4668 30.7628 18.8318 30.7628H26.8115C27.788 30.7628 28.6456 30.1903 29.0272 29.3139L38.2582 23.9835C38.87 23.7034 39.3703 23.838 39.759 24.3874C40.0929 24.9633 39.7223 25.5919 39.2807 25.9383L28.1409 34.6453C27.49 35.1547 26.6759 35.4352 25.8483 35.4352H22.3889C22.0239 35.4352 21.7281 35.731 21.7281 36.0961C21.7281 36.4611 22.0239 36.7569 22.3889 36.7569H25.8483C26.9699 36.7569 28.0734 36.3766 28.9551 35.6863L40.0613 27.0057C41.2019 26.1375 41.4825 25.0442 40.9034 23.7259ZM11.3797 43.4045L1.59538 33.6201L4.60757 30.6079L14.3919 40.3923L11.3797 43.4045ZM15.3265 39.4576L6.73316 30.8643L7.67528 29.9222L16.2687 38.5154L15.3265 39.4576Z" fill="black"/>
<path d="M2.81435 20.4813H8.90042C9.26548 20.4813 9.56128 20.1855 9.56128 19.8205C9.56128 19.4554 9.26548 19.1596 8.90042 19.1596H3.47521V1.32172H37.7342V8.79647C37.7342 9.16153 38.03 9.45733 38.3951 9.45733C38.7601 9.45733 39.0559 9.16153 39.0559 8.79647V0.660859C39.0559 0.2958 38.7601 0 38.3951 0H2.81435C2.44929 0 2.15349 0.2958 2.15349 0.660859V19.8205C2.15349 20.1855 2.44938 20.4813 2.81435 20.4813Z" fill="#FFC13E"/>
<path d="M11.781 20.4813H38.3951C38.7601 20.4813 39.0559 20.1855 39.0559 19.8204V11.676C39.0559 11.3109 38.7601 11.0151 38.3951 11.0151C38.03 11.0151 37.7342 11.3109 37.7342 11.676V19.1596H11.781C11.4159 19.1596 11.1201 19.4554 11.1201 19.8204C11.1201 20.1855 11.4159 20.4813 11.781 20.4813Z" fill="#FFC13E"/>
<path d="M32.9214 17.7442C33.0967 17.7442 33.2647 17.6746 33.3888 17.5507L36.1259 14.8136C36.2498 14.6897 36.3194 14.5216 36.3194 14.3463V6.13524C36.3194 5.96042 36.25 5.79256 36.1266 5.66876L33.3895 2.92241C33.2655 2.79799 33.097 2.72803 32.9213 2.72803H8.28804C8.11242 2.72803 7.94395 2.79799 7.81988 2.92241L5.08287 5.66876C4.95951 5.79256 4.89008 5.96042 4.89008 6.13524V14.3464C4.89008 14.5216 4.95969 14.6897 5.08358 14.8137L7.82068 17.5508C7.94465 17.6747 8.11269 17.7443 8.28804 17.7443H32.9214V17.7442ZM15.7916 10.2361C15.7916 6.82491 17.9508 4.04975 20.6048 4.04975C23.2588 4.04975 25.4179 6.82491 25.4179 10.2361C25.4179 13.6473 23.2588 16.4225 20.6048 16.4225C17.9508 16.4225 15.7916 13.6473 15.7916 10.2361ZM32.647 4.04975L34.9977 6.40831V14.0726L32.6476 16.4225H24.0757C25.6832 15.0674 26.7396 12.8003 26.7396 10.2361C26.7396 7.67187 25.6832 5.40486 24.0757 4.04975H32.647ZM8.56181 16.4225L6.21188 14.0726V6.40831L8.56251 4.04975H17.1338C15.5263 5.40486 14.4699 7.67187 14.4699 10.2361C14.4699 12.8003 15.5263 15.0674 17.1338 16.4225H8.56181Z" fill="#FFC13E"/>
<path d="M10.3408 8.21143C9.22186 8.21143 8.31146 9.12182 8.31146 10.2408C8.31146 11.3598 9.22186 12.2702 10.3408 12.2702C11.4598 12.2702 12.3702 11.3598 12.3702 10.2408C12.3702 9.12182 11.4598 8.21143 10.3408 8.21143ZM10.3408 10.9485C9.95057 10.9485 9.63318 10.6311 9.63318 10.2409C9.63318 9.85071 9.95066 9.53323 10.3408 9.53323C10.731 9.53323 11.0485 9.85071 11.0485 10.2409C11.0485 10.6311 10.7311 10.9485 10.3408 10.9485Z" fill="#FFC13E"/>
<path d="M30.8686 12.2702C31.9876 12.2702 32.898 11.3598 32.898 10.2408C32.898 9.12182 31.9876 8.21143 30.8686 8.21143C29.7496 8.21143 28.8392 9.12182 28.8392 10.2408C28.8392 11.3598 29.7496 12.2702 30.8686 12.2702ZM30.8686 9.53306C31.2589 9.53306 31.5763 9.85053 31.5763 10.2407C31.5763 10.6309 31.2588 10.9484 30.8686 10.9484C30.4784 10.9484 30.161 10.6309 30.161 10.2407C30.161 9.85053 30.4784 9.53306 30.8686 9.53306Z" fill="#FFC13E"/>
<path d="M17.7742 9.50201H23.4354C23.7026 9.50201 23.9437 9.34103 24.0459 9.09404C24.1482 8.84706 24.0917 8.56289 23.9027 8.37388L22.5343 7.00538C22.2762 6.74729 21.8578 6.7472 21.5998 7.00529C21.3416 7.26338 21.3416 7.68183 21.5997 7.93983L21.8401 8.1803H17.7743C17.4092 8.1803 17.1134 8.4761 17.1134 8.84116C17.1134 9.20621 17.4091 9.50201 17.7742 9.50201Z" fill="#FFC13E"/>
<path d="M24.0962 11.5783C24.0962 11.2133 23.8004 10.9175 23.4354 10.9175H17.7741C17.5068 10.9175 17.2658 11.0785 17.1635 11.3255C17.0612 11.5724 17.1177 11.8566 17.3067 12.0457L18.6752 13.4142C18.9868 13.6722 19.2984 13.6722 19.6099 13.4142C19.8679 13.156 19.8679 12.7377 19.6099 12.4796L19.3694 12.2392H23.4353C23.8003 12.2392 24.0962 11.9434 24.0962 11.5783Z" fill="#FFC13E"/>
</svg>
