<svg width="48" height="48" viewBox="0 0 48 48" fill="none" xmlns="http://www.w3.org/2000/svg">
<path d="M33.5172 21.1301L24.4537 30.1936H20.9032V28.6452H20.8831C22.3757 27.5281 23.4581 25.8914 23.8436 24.0001H24C25.7079 24.0001 27.0968 22.6112 27.0968 20.9033C27.0968 20.1244 26.7987 19.4207 26.3226 18.8764V16.2581C26.3226 10.7087 21.8075 6.1936 16.2581 6.1936C10.7086 6.1936 6.19355 10.7087 6.19355 16.2581V18.8764C5.71742 19.4207 5.41935 20.1244 5.41935 20.9033C5.41935 22.6112 6.80826 24.0001 8.51613 24.0001H8.67252C9.05806 25.8914 10.1404 27.5281 11.633 28.6452H11.6129V30.1936H7.74194C3.47303 30.1936 0 33.6666 0 37.9355V47.2259C0 47.654 0.346065 48.0001 0.774194 48.0001H31.7419C32.1701 48.0001 32.5161 47.654 32.5161 47.2259V37.9355C32.5161 34.2442 29.9172 31.1528 26.4542 30.3825L34.385 22.4517H48V20.9033H34.0645C33.8586 20.9033 33.6619 20.9846 33.5172 21.1301ZM12.024 31.742L15.0372 35.3575L12.065 36.8432L10.3641 31.742H12.024ZM16.1187 40.2581H16.3982L17.6369 46.4517H14.88L16.1187 40.2581ZM16.5538 38.7097H15.9623L15.1293 37.0429L16.2581 36.4785L17.3868 37.0429L16.5538 38.7097ZM17.479 35.3575L20.4921 31.742H22.152L20.4511 36.8439L17.479 35.3575ZM24 22.4517V19.3549C24.8539 19.3549 25.5484 20.0493 25.5484 20.9033C25.5484 21.7572 24.8539 22.4517 24 22.4517ZM6.96774 20.9033C6.96774 20.0493 7.66219 19.3549 8.51613 19.3549V22.4517C7.66219 22.4517 6.96774 21.7572 6.96774 20.9033ZM8.51613 17.8065C8.24748 17.8065 7.99123 17.8514 7.74194 17.9164V16.2581C7.74194 11.5626 11.5626 7.74199 16.2581 7.74199C20.9535 7.74199 24.7742 11.5626 24.7742 16.2581V17.9164C24.5249 17.8514 24.2686 17.8065 24 17.8065C24 17.3784 23.6539 17.0323 23.2258 17.0323C22.0142 17.0323 20.856 16.4532 20.129 15.4832L19.2 14.2444C18.9081 13.8558 18.2532 13.8558 17.9613 14.2444L17.0323 15.4839C16.3053 16.4532 15.1471 17.0323 13.9355 17.0323H9.29032C8.86219 17.0323 8.51613 17.3784 8.51613 17.8065ZM10.0645 22.4517V18.5807H13.9355C15.6317 18.5807 17.2529 17.7701 18.271 16.413L18.5806 15.9995L18.8903 16.4122C19.752 17.5611 21.0449 18.319 22.4516 18.5242V22.4517C22.4516 25.8666 19.673 28.6452 16.2581 28.6452C12.8431 28.6452 10.0645 25.8666 10.0645 22.4517ZM16.2581 30.1936C17.359 30.1936 18.4057 29.959 19.3548 29.5425V30.6875L16.2581 34.4037L13.1613 30.6875V29.5425C14.1105 29.959 15.1572 30.1936 16.2581 30.1936ZM1.54839 37.9355C1.54839 34.5206 4.32697 31.742 7.74194 31.742H8.7329L10.879 38.1802C10.9494 38.3923 11.1097 38.5642 11.3164 38.6501C11.4116 38.6904 11.5123 38.7097 11.6129 38.7097C11.7314 38.7097 11.8506 38.6826 11.959 38.6284L13.7435 37.7358L14.6717 39.5931L13.3006 46.4517H6.19355V41.8065H4.64516V46.4517H1.54839V37.9355ZM30.9677 37.9355V46.4517H27.871V41.8065H26.3226V46.4517H19.2155L17.8436 39.5931L18.7719 37.7358L20.5564 38.6284C20.6655 38.6826 20.7848 38.7097 20.9032 38.7097C21.0039 38.7097 21.1045 38.6904 21.1997 38.6509C21.4072 38.565 21.5675 38.3931 21.6372 38.181L23.7832 31.742H24.7742C28.1892 31.742 30.9677 34.5206 30.9677 37.9355Z" fill="#FFC13E"/>
<path d="M46.4516 17.8065V6.9678C46.4516 6.53967 46.1056 6.1936 45.6774 6.1936H42.5806C42.1525 6.1936 41.8065 6.53967 41.8065 6.9678V17.8065H40.2581V11.613C40.2581 11.1848 39.912 10.8388 39.4839 10.8388H36.3871C35.959 10.8388 35.6129 11.1848 35.6129 11.613V17.8065H34.0645V13.9355C34.0645 13.5074 33.7185 13.1613 33.2903 13.1613H30.1936C29.7654 13.1613 29.4194 13.5074 29.4194 13.9355V17.8065H27.871V19.3549H48V17.8065H46.4516ZM43.3548 7.74199H44.9032V17.8065H43.3548V7.74199ZM37.1613 12.3872H38.7097V17.8065H37.1613V12.3872ZM30.9677 14.7097H32.5161V17.8065H30.9677V14.7097Z" fill="#FFC13E"/>
<path d="M35.1592 4.64516H39.4839C39.6898 4.64516 39.8865 4.56387 40.0312 4.41832L41.8065 2.6431V4.64516H43.3548V0.774194C43.3548 0.346065 43.0088 0 42.5806 0H38.7097V1.54839H40.7117L39.1634 3.09677H34.8387C34.6328 3.09677 34.4361 3.17806 34.2914 3.32361L29.6462 7.96877L30.7409 9.06348L35.1592 4.64516Z" fill="#FFC13E"/>
</svg>
