<svg width="75" height="48" viewBox="0 0 75 48" fill="none" xmlns="http://www.w3.org/2000/svg">
<path d="M50.4221 27.0408L44.038 24.203C43.587 24.0026 43.2958 23.5541 43.2958 23.0607V21.3073C45.4403 19.5983 46.8187 16.9666 46.8187 14.0174V11.5492C47.5252 11.1588 47.9929 10.4043 47.9929 9.55924V9.3197C47.9929 4.18085 43.8127 0 38.6746 0H36.3262C31.1881 0 27.0078 4.18085 27.0078 9.3197V11.4931C27.0078 12.2359 27.3275 12.9088 27.8846 13.3394C27.979 13.4124 28.0785 13.4765 28.1821 13.5321V14.0173C28.1821 16.9665 29.5603 19.5981 31.7047 21.307V23.0605C31.7047 23.554 31.4134 24.0024 30.9625 24.2028L24.5784 27.0407C22.4876 27.97 21.1366 30.0492 21.1366 32.3375V46.9008C21.1366 47.5076 21.6285 47.9996 22.2352 47.9996C22.842 47.9996 23.3339 47.5076 23.3339 46.9008V32.3376C23.3339 32.2103 23.3429 32.0844 23.3561 31.9596L26.2978 34.9018C26.7556 35.3597 27.0078 35.9685 27.0078 36.6162V46.9009C27.0078 47.5077 27.4997 47.9997 28.1065 47.9997C28.7132 47.9997 29.2051 47.5077 29.2051 46.9009V36.6162C29.2051 35.3816 28.7245 34.2209 27.8516 33.3479L24.3446 29.8403C24.6606 29.5124 25.0397 29.2406 25.4709 29.0488L31.7474 26.2589L36.4019 30.9141V46.9008C36.4019 47.5076 36.8938 47.9996 37.5005 47.9996C38.1073 47.9996 38.5992 47.5076 38.5992 46.9008V30.9143L43.2537 26.2591L49.53 29.0488C49.9613 29.2406 50.3404 29.5124 50.6563 29.8404L47.1493 33.3479C46.2764 34.2209 45.7958 35.3816 45.7958 36.6162V46.9009C45.7958 47.5077 46.2877 47.9997 46.8945 47.9997C47.5012 47.9997 47.9931 47.5077 47.9931 46.9009V36.6162C47.9931 35.9686 48.2452 35.3597 48.7031 34.9018L51.6447 31.9598C51.6578 32.0846 51.6669 32.2101 51.6669 32.3375V46.9008C51.6669 47.5076 52.1588 47.9996 52.7656 47.9996C53.3723 47.9996 53.8642 47.5076 53.8642 46.9008V32.3376C53.8638 30.0493 52.5129 27.9701 50.4221 27.0408ZM37.5001 28.9052L33.416 24.8204C33.7265 24.2978 33.9019 23.6931 33.9019 23.0607V22.6135C35.0097 23.0791 36.2254 23.3371 37.5002 23.3371C38.7751 23.3371 39.9906 23.0793 41.0983 22.6137V23.0607C41.0983 23.6933 41.2737 24.2978 41.5844 24.8205L37.5001 28.9052ZM37.5002 21.1394C33.5737 21.1395 30.3792 17.9445 30.3792 14.0174V13.5233C31.0647 13.2515 31.7339 12.819 32.3745 12.2279C32.8202 11.8163 32.8482 11.1211 32.4366 10.6752C32.0251 10.2294 31.3302 10.2014 30.8841 10.6129C30.3347 11.1203 29.7856 11.448 29.2527 11.5872C29.2398 11.5906 29.2303 11.592 29.2236 11.5926C29.2157 11.5772 29.205 11.545 29.205 11.4933V9.31985C29.205 5.39275 32.3995 2.19774 36.326 2.19774H38.6745C42.6011 2.19774 45.7955 5.39275 45.7955 9.31985V9.55939C45.7955 9.59499 45.7741 9.6259 45.746 9.63147C39.1672 10.931 35.8675 8.48183 34.7542 7.36839C34.3252 6.93927 33.6295 6.93927 33.2006 7.36839C32.7716 7.7975 32.7716 8.49326 33.2006 8.92223C36.6123 12.3344 41.5905 12.3959 44.6213 12.0317V14.0173C44.6213 17.9444 41.4268 21.1394 37.5002 21.1394Z" fill="#FFC13E"/>
<path d="M19.8109 21.0644V18.7152C19.8109 15.8487 18.3214 13.3252 16.0771 11.8731C16.2157 11.4284 16.2881 10.9627 16.2881 10.4943C16.2881 7.94567 14.215 5.87231 11.6668 5.87231C9.11852 5.87231 7.04547 7.94582 7.04547 10.4943C7.04547 10.9685 7.11725 11.4297 7.25612 11.8734C5.01197 13.3254 3.52266 15.8488 3.52266 18.7152V21.064C3.52266 23.8398 4.9191 26.2944 7.04533 27.7656V30.182C7.04533 30.6585 6.78063 31.0869 6.3545 31.3001L2.55455 33.2003C0.97881 33.9885 0 35.5725 0 37.3345V46.9013C0 47.5081 0.491895 48 1.09863 48C1.70537 48 2.19727 47.5081 2.19727 46.9013V37.8098L3.98702 39.5998C4.44478 40.0578 4.69703 40.6665 4.69703 41.3142V46.9013C4.69703 47.5081 5.18893 48 5.79566 48C6.4024 48 6.8943 47.5081 6.8943 46.9013V41.3142C6.8943 40.0796 6.41354 38.919 5.54078 38.046L3.04981 35.5546C3.0378 35.5426 3.02491 35.5322 3.0126 35.5209C3.1689 35.3829 3.34424 35.2628 3.53731 35.1661L7.33727 33.2659C7.53195 33.1685 7.71315 33.0535 7.88205 32.9257L10.5681 35.6124V46.9014C10.5681 47.5082 11.06 48.0002 11.6668 48.0002C12.2735 48.0002 12.7654 47.5082 12.7654 46.9014V35.6122L15.4516 32.9256C15.6207 33.0535 15.8017 33.1685 15.9964 33.2658L17.0442 33.7898C17.202 33.8688 17.3696 33.9061 17.5348 33.9061C17.9378 33.9061 18.3258 33.6835 18.5183 33.2986C18.7897 32.7558 18.5697 32.0958 18.027 31.8244L16.9792 31.3004C16.5529 31.0872 16.2882 30.6588 16.2882 30.1824V27.7661C18.4144 26.2949 19.8109 23.8401 19.8109 21.0644ZM11.6668 8.06991C13.0034 8.06991 14.0908 9.15757 14.0908 10.4943C14.0908 10.6415 14.0776 10.7858 14.0524 10.9272C13.2974 10.6954 12.4966 10.5699 11.6668 10.5699C10.8381 10.5699 10.0383 10.695 9.28449 10.9262C9.25915 10.7848 9.24274 10.6412 9.24274 10.4943C9.24274 9.15743 10.3301 8.06991 11.6668 8.06991ZM11.6668 12.7676C14.9458 12.7676 17.6136 15.4358 17.6136 18.7153V19.1136C13.0396 20.5142 10.3137 17.0342 10.1972 16.8817C10.0061 16.6269 9.71384 16.4675 9.39626 16.4449C9.07868 16.4227 8.76667 16.5389 8.54152 16.764C7.49284 17.8129 6.46569 18.3188 5.72389 18.563C5.80519 15.3536 8.43883 12.7676 11.6668 12.7676ZM11.6668 33.603L9.12804 31.0639C9.20217 30.7806 9.24274 30.4852 9.24274 30.1821V28.8408C10.0087 29.0802 10.823 29.2093 11.6668 29.2093C12.5105 29.2093 13.3248 29.0802 14.0908 28.8408V30.1821C14.0908 30.4852 14.1314 30.7807 14.2055 31.0639L11.6668 33.603ZM11.6668 27.0117C8.38771 27.0117 5.71993 24.3435 5.71993 21.064V20.8363C6.59606 20.635 7.89508 20.1672 9.25021 19.0772C9.72966 19.5296 10.4149 20.0846 11.2875 20.5606C12.3197 21.1236 13.7451 21.6444 15.4862 21.6444C16.1479 21.6444 16.8558 21.5675 17.6042 21.3908C17.4339 24.519 14.8361 27.0117 11.6668 27.0117Z" fill="#FFC13E"/>
<path d="M72.4455 30.8516L66.2971 27.7769C65.871 27.5637 65.6063 27.1353 65.6063 26.6589V25.1016C67.0455 23.8237 67.9548 21.9613 67.9548 19.8897V18.639C67.9801 18.639 68.005 18.6397 68.0303 18.6397C68.6371 18.6397 69.129 18.1477 69.129 17.5409V15.1921C69.129 11.3484 66.0023 8.22119 62.1591 8.22119H59.8106C55.9675 8.22119 52.8408 11.3484 52.8408 15.1921V17.5409C52.8408 18.1477 53.3327 18.6397 53.9394 18.6397C53.9485 18.6397 53.9748 18.6394 54.015 18.6378V19.8897C54.015 21.9614 54.9244 23.8238 56.3636 25.1018V26.659C56.3636 27.1356 56.0989 27.564 55.6726 27.777C55.1299 28.0483 54.9099 28.7083 55.1813 29.2511C55.3738 29.6362 55.7618 29.8589 56.1648 29.8589C56.3299 29.8589 56.4975 29.8215 56.6552 29.7427C56.8499 29.6452 57.0311 29.5302 57.2 29.4025L59.8862 32.0891V46.9013C59.8862 47.5082 60.3781 48.0001 60.9849 48.0001C61.5916 48.0001 62.0835 47.5082 62.0835 46.9013V32.0888L64.7696 29.4022C64.9386 29.5301 65.1197 29.6451 65.3144 29.7424L71.2638 32.7176L69.4593 34.5224C68.5865 35.3955 68.1058 36.5561 68.1058 37.7907V46.901C68.1058 47.5079 68.5977 47.9998 69.2044 47.9998C69.8112 47.9998 70.303 47.5079 70.303 46.901V37.7907C70.303 37.1431 70.5551 36.5343 71.0131 36.0763L72.7224 34.3667C72.7742 34.5655 72.8027 34.7728 72.8027 34.9855V46.901C72.8027 47.5079 73.2946 47.9998 73.9013 47.9998C74.508 47.9998 74.9999 47.5079 74.9999 46.901V34.9855C75.0001 33.2237 74.0213 31.6396 72.4455 30.8516ZM55.0379 16.216V15.192H55.038C55.038 12.56 57.179 10.4186 59.8106 10.4186H62.1591C64.7907 10.4186 66.9317 12.56 66.9317 15.192V16.4125C62.1559 16.1548 59.2738 14.2961 59.2458 14.2778C59.0599 14.1538 58.8478 14.0932 58.6367 14.0932C58.3531 14.0932 58.0719 14.2027 57.8595 14.415C56.8083 15.4664 55.7784 15.9724 55.0379 16.216ZM60.9849 30.0798L58.4461 27.5407C58.5203 27.2573 58.5608 26.962 58.5608 26.6589V26.4249C59.3161 26.706 60.1328 26.8605 60.9849 26.8605C61.837 26.8605 62.6536 26.706 63.4089 26.4249V26.6589C63.4089 26.962 63.4493 27.2573 63.5236 27.5407L60.9849 30.0798ZM60.9849 24.663C58.3533 24.663 56.2122 22.5218 56.2122 19.8897V18.1183C56.9817 17.8108 57.8782 17.3219 58.7905 16.5445C59.9442 17.1449 62.358 18.1826 65.7575 18.5254V19.8897C65.7575 22.5217 63.6165 24.663 60.9849 24.663Z" fill="#FFC13E"/>
</svg>
