<svg width="48" height="48" viewBox="0 0 48 48" fill="none" xmlns="http://www.w3.org/2000/svg">
<path d="M12.8001 18.5569H11.2001V20.1484H12.8001V18.5569Z" fill="#FFC13E"/>
<path d="M20.8 18.5569H19.2V20.1484H20.8V18.5569Z" fill="#FFC13E"/>
<path d="M47.3136 27.3182L44.188 26.8742C44.0394 26.4394 43.8639 26.0142 43.6624 25.601L45.5536 23.0927C45.6692 22.9395 45.7252 22.7499 45.7116 22.5589C45.6979 22.3678 45.6154 22.1881 45.4792 22.0527L42.0848 18.6763C41.9544 18.5475 41.783 18.4679 41.6 18.4511V10.7911C42.3485 10.195 42.9528 9.43921 43.3682 8.5796C43.7836 7.71999 43.9996 6.77852 44 5.82476C44.0074 4.61876 43.6665 3.43602 43.018 2.41702C42.3695 1.39801 41.4406 0.58557 40.3416 0.0761928C40.2197 0.0189274 40.0852 -0.00675984 39.9507 0.00151716C39.8161 0.00979416 39.6858 0.0517669 39.5719 0.123537C39.458 0.195306 39.3642 0.294544 39.2992 0.412033C39.2342 0.529521 39.2001 0.661448 39.2 0.795559V5.25181L37.6 5.78258L36 5.25181V0.795559C35.9995 0.661718 35.965 0.530182 35.8997 0.413123C35.8345 0.296064 35.7406 0.197264 35.6268 0.125865C35.513 0.0544653 35.3829 0.0127738 35.2486 0.00464779C35.1143 -0.00347819 34.9801 0.0222239 34.8584 0.0793758C33.76 0.588527 32.8314 1.40048 32.1829 2.41886C31.5345 3.43724 31.1933 4.61931 31.2 5.82476C31.2005 6.77852 31.4164 7.71999 31.8319 8.5796C32.2473 9.43921 32.8515 10.195 33.6 10.7911V16.1696H31.2C31.0075 16.1696 30.8215 16.2386 30.676 16.364C30.5305 16.4895 30.4354 16.6628 30.408 16.8524L29.8904 20.4564L31.4744 20.6816L31.8936 17.7611H35.3064L35.7256 20.6816C35.7475 20.8329 35.8126 20.9747 35.9134 21.0902C36.0141 21.2056 36.1461 21.2897 36.2936 21.3325C36.9604 21.5242 37.6042 21.7875 38.2136 22.1179C38.3485 22.1915 38.5017 22.2248 38.6551 22.2139C38.8085 22.2031 38.9555 22.1485 39.0784 22.0567L41.4472 20.2901L43.86 22.6901L42.08 25.0463C41.9878 25.1687 41.9329 25.3149 41.9219 25.4674C41.911 25.62 41.9445 25.7724 42.0184 25.9065C42.3506 26.5127 42.6154 27.1531 42.808 27.8164C42.8511 27.9631 42.9356 28.0944 43.0517 28.1946C43.1677 28.2948 43.3103 28.3596 43.4624 28.3814L46.3984 28.7983V32.193L43.4624 32.61C43.3103 32.6317 43.1677 32.6966 43.0517 32.7967C42.9356 32.8969 42.8511 33.0283 42.808 33.175C42.6154 33.8383 42.3506 34.4786 42.0184 35.0848C41.9445 35.2189 41.911 35.3714 41.9219 35.524C41.9329 35.6765 41.9878 35.8227 42.08 35.945L43.856 38.3013L41.4432 40.7013L39.076 38.9283C38.9531 38.8365 38.8061 38.7819 38.6527 38.7711C38.4993 38.7602 38.3461 38.7935 38.2112 38.8671C37.6018 39.1975 36.958 39.4608 36.2912 39.6525C36.1437 39.6953 36.0117 39.7794 35.911 39.8948C35.8102 40.0103 35.7451 40.1521 35.7232 40.3034L35.3064 43.2254H32V39.8602C31.9995 39.0195 31.8783 38.1832 31.64 37.3766C33.1638 37.8203 34.7916 37.757 36.2759 37.1961C37.7601 36.6352 39.0196 35.6076 39.8629 34.2694C40.7061 32.9312 41.087 31.3557 40.9475 29.7825C40.8081 28.2093 40.1559 26.7244 39.0903 25.5536C38.0246 24.3829 36.6037 23.5903 35.0437 23.2965C33.4837 23.0026 31.8699 23.2236 30.4477 23.9257C29.0255 24.6278 27.8727 25.7727 27.1646 27.1863C26.4565 28.5998 26.2319 30.2048 26.5248 31.757C26.5056 31.749 26.4872 31.7395 26.468 31.7323L20 29.1588V27.9357C21.0691 27.3917 22.0159 26.6375 22.7832 25.7187H24.8C25.4366 25.7187 26.047 25.4672 26.4971 25.0195C26.9472 24.5718 27.2 23.9646 27.2 23.3315V21.5935C27.6664 21.4295 28.0704 21.1262 28.3568 20.7251C28.6432 20.324 28.798 19.8447 28.8 19.3527V16.9654C28.798 16.4734 28.6432 15.9941 28.3568 15.5929C28.0704 15.1918 27.6664 14.8885 27.2 14.7245V13.7824C27.2 10.8277 26.02 7.99401 23.9196 5.90474C21.8192 3.81546 18.9705 2.64172 16 2.64172C13.0296 2.64172 10.1809 3.81546 8.08045 5.90474C5.98004 7.99401 4.80005 10.8277 4.80005 13.7824V14.7245C4.33372 14.8885 3.92972 15.1918 3.64332 15.5929C3.35691 15.9941 3.2021 16.4734 3.20005 16.9654V19.3527C3.20005 19.9858 3.4529 20.593 3.90299 21.0407C4.35308 21.4884 4.96353 21.7399 5.60005 21.7399H7.20005C7.25125 21.7399 7.30085 21.732 7.35125 21.7288C7.59722 23.0482 8.14422 24.2938 8.95016 25.3699C9.7561 26.446 10.7995 27.3237 12 27.9357V29.1588L5.53205 31.7323C3.8957 32.3773 2.4927 33.4978 1.50592 34.9476C0.519148 36.3975 -0.00561398 38.1094 4.52962e-05 39.8602V47.2042C4.52962e-05 47.4153 0.0843307 47.6177 0.23436 47.7669C0.384389 47.9162 0.587872 48 0.800045 48H31.2C31.4122 48 31.6157 47.9162 31.7657 47.7669C31.9158 47.6177 32 47.4153 32 47.2042V44.817H36C36.1926 44.817 36.3786 44.748 36.5241 44.6226C36.6696 44.4971 36.7647 44.3237 36.792 44.1342L37.2384 41.0252C37.6755 40.8773 38.103 40.7027 38.5184 40.5024L41.04 42.3835C41.1941 42.4984 41.3847 42.5542 41.5767 42.5406C41.7688 42.527 41.9495 42.445 42.0856 42.3095L45.48 38.9331C45.6162 38.7977 45.6987 38.618 45.7124 38.4269C45.726 38.2358 45.67 38.0463 45.5544 37.8931L43.6632 35.3848C43.8647 34.9716 44.0402 34.5464 44.1888 34.1116L47.3144 33.6676C47.5047 33.6402 47.6787 33.5456 47.8046 33.4011C47.9305 33.2566 47.9999 33.0718 48 32.8806V28.106C48.0001 27.9145 47.9307 27.7295 47.8046 27.5847C47.6785 27.44 47.5042 27.3454 47.3136 27.3182ZM38.5136 20.4842C38.476 20.4659 38.4336 20.454 38.396 20.4365V10.5993H36.8V16.9097L36.792 16.8524C36.7647 16.6628 36.6696 16.4895 36.5241 16.364C36.3786 16.2386 36.1926 16.1696 36 16.1696H35.2V10.3924C35.2001 10.2641 35.1688 10.1376 35.1091 10.0238C35.0493 9.91008 34.9628 9.81239 34.8568 9.7391C34.2622 9.32727 33.7689 8.78685 33.4141 8.15838C33.0593 7.52991 32.8522 6.82969 32.8083 6.11024C32.7643 5.39079 32.8847 4.67077 33.1604 4.00419C33.436 3.33762 33.8599 2.74177 34.4 2.26135V5.82476C34.4 5.99184 34.4528 6.15469 34.5511 6.29024C34.6493 6.42578 34.7879 6.52714 34.9472 6.57993L37.3472 7.37569C37.5113 7.43006 37.6887 7.43006 37.8528 7.37569L40.2528 6.57993C40.4122 6.52714 40.5508 6.42578 40.649 6.29024C40.7473 6.15469 40.8001 5.99184 40.8 5.82476V2.26135C41.3407 2.74176 41.7649 3.33774 42.0408 4.00456C42.3168 4.67138 42.4373 5.39171 42.3934 6.11149C42.3494 6.83127 42.1421 7.53179 41.787 8.16048C41.432 8.78917 40.9384 9.3297 40.3432 9.74149C40.2376 9.81455 40.1513 9.91186 40.0916 10.0252C40.0318 10.1385 40.0004 10.2645 40 10.3924V19.3789L38.5136 20.4842ZM28 30.4933C27.9912 29.249 28.3985 28.0372 29.1579 27.0484C29.9172 26.0595 30.9855 25.3499 32.1946 25.031C33.4037 24.7122 34.6851 24.8022 35.8372 25.287C36.9893 25.7717 37.9467 26.6237 38.5587 27.7089C39.1708 28.7941 39.4027 30.0508 39.2182 31.2815C39.0336 32.5122 38.443 33.6469 37.5392 34.5071C36.6354 35.3674 35.4697 35.9044 34.2256 36.0336C32.9814 36.1628 31.7294 35.8769 30.6664 35.2209C30.1134 34.3397 29.4059 33.5643 28.5776 32.9315C28.197 32.1745 27.9993 31.3397 28 30.4933ZM24.8 24.1272H23.8288C24.2187 23.372 24.495 22.5639 24.6488 21.7288C24.6992 21.7288 24.7488 21.7399 24.8 21.7399H25.6V23.3315C25.6 23.5425 25.5158 23.7449 25.3657 23.8941C25.2157 24.0434 25.0122 24.1272 24.8 24.1272ZM23.2 15.3739C22.8276 15.3729 22.4605 15.2863 22.1274 15.1206C21.7943 14.9549 21.5042 14.7148 21.28 14.419L19.84 12.5091C19.7758 12.4239 19.6949 12.3523 19.6023 12.2987C19.5096 12.2452 19.4071 12.2106 19.3008 12.1972C19.1945 12.1842 19.0866 12.1924 18.9835 12.2212C18.8804 12.25 18.784 12.2989 18.7 12.3651L16.0152 14.4985C15.3069 15.0624 14.4273 15.3709 13.52 15.3739H8.80005V14.5781C8.80005 12.6787 9.55861 10.857 10.9089 9.51393C12.2591 8.17083 14.0905 7.41628 16 7.41628C17.9096 7.41628 19.741 8.17083 21.0912 9.51393C22.4415 10.857 23.2 12.6787 23.2 14.5781V15.3739ZM27.2 19.3527C27.2 19.5637 27.1158 19.7661 26.9657 19.9154C26.8157 20.0646 26.6122 20.1484 26.4 20.1484H24.8V16.1696H26.4C26.6122 16.1696 26.8157 16.2535 26.9657 16.4027C27.1158 16.5519 27.2 16.7543 27.2 16.9654V19.3527ZM16 4.23324C18.5453 4.23598 20.9855 5.24292 22.7852 7.03313C24.585 8.82335 25.5973 11.2506 25.6 13.7824V14.5781H24.8C24.8 12.2566 23.8729 10.0301 22.2226 8.38856C20.5723 6.74698 18.334 5.82476 16 5.82476C13.6661 5.82476 11.4278 6.74698 9.77751 8.38856C8.12719 10.0301 7.20005 12.2566 7.20005 14.5781H6.40004V13.7824C6.4028 11.2506 7.41511 8.82335 9.21486 7.03313C11.0146 5.24292 13.4548 4.23598 16 4.23324ZM5.60005 20.1484C5.38787 20.1484 5.18439 20.0646 5.03436 19.9154C4.88433 19.7661 4.80005 19.5637 4.80005 19.3527V16.9654C4.80005 16.7543 4.88433 16.5519 5.03436 16.4027C5.18439 16.2535 5.38787 16.1696 5.60005 16.1696H7.20005V20.1484H5.60005ZM8.80005 20.1484V16.9654H13.52C14.7912 16.9637 16.0241 16.5334 17.0176 15.7447L19.0584 14.1205L20 15.3739C20.3737 15.8669 20.8571 16.2671 21.4122 16.5432C21.9674 16.8194 22.5793 16.9639 23.2 16.9654V20.1484C23.2013 21.5657 22.7774 22.9511 21.9824 24.1272H16V25.7187H20.5152C19.4588 26.5684 18.1819 27.1031 16.8326 27.2609C15.4832 27.4187 14.1166 27.1931 12.8908 26.6103C11.665 26.0274 10.6302 25.1112 9.90627 23.9676C9.18231 22.824 8.79877 21.4999 8.80005 20.1484ZM16 28.9018C16.812 28.8998 17.6197 28.7857 18.4 28.5628V29.6975C18.4 30.3307 18.1472 30.9379 17.6971 31.3856C17.247 31.8333 16.6366 32.0848 16 32.0848C15.3635 32.0848 14.7531 31.8333 14.303 31.3856C13.8529 30.9379 13.6 30.3307 13.6 29.6975V28.5628C14.3804 28.7857 15.1881 28.8998 16 28.9018ZM30.4 46.4085H25.6V37.6551H24V46.4085H8.00004V37.6551H6.40004V46.4085H1.60005V39.8602C1.59539 38.4276 2.02475 37.027 2.83216 35.8407C3.63956 34.6545 4.78755 33.7377 6.12645 33.21L12.1768 30.8028C12.4131 31.6303 12.9142 32.3585 13.6042 32.877C14.2941 33.3956 15.1353 33.6761 16 33.6761C16.8648 33.6761 17.706 33.3956 18.3959 32.877C19.0859 32.3585 19.587 31.6303 19.8232 30.8028L25.8736 33.21C27.2125 33.7377 28.3605 34.6545 29.1679 35.8407C29.9753 37.027 30.4047 38.4276 30.4 39.8602V46.4085Z" fill="#FFC13E"/>
<path d="M34.4 19.3525H32.8V20.9441H34.4V19.3525Z" fill="#FFC13E"/>
<path d="M34.4 40.0425H32.8V41.634H34.4V40.0425Z" fill="#FFC13E"/>
<path d="M40.9532 36.683L39.8218 37.8083L40.9532 38.9337L42.0846 37.8083L40.9532 36.683Z" fill="#FFC13E"/>
<path d="M44.8 29.6975H43.2V31.289H44.8V29.6975Z" fill="#FFC13E"/>
<path d="M40.9536 22.0533L39.8223 23.1787L40.9536 24.3041L42.085 23.1787L40.9536 22.0533Z" fill="#FFC13E"/>
</svg>
