<svg width="48" height="48" viewBox="0 0 48 48" fill="none" xmlns="http://www.w3.org/2000/svg">
<path d="M38.3847 25.1924L40.5727 23.0045C41.2162 22.3609 40.2184 21.3678 39.5749 22.0113L37.4456 24.1407C36.765 24.6798 35.9806 24.6677 35.3207 24.1273L38.2896 21.1582C38.9331 20.5147 37.9352 19.5213 37.2919 20.1651L32.6021 24.8549C32.0207 25.4364 31.0522 25.4364 30.4707 24.8549C29.8819 24.2661 29.8819 23.3081 30.4706 22.7192C30.4706 22.7191 30.4707 22.7191 30.4707 22.719L31.2324 21.9574C31.876 21.3139 30.8779 20.3205 30.2346 20.9642L29.473 21.7258C28.8916 22.3073 27.9231 22.3073 27.3416 21.7258C26.7527 21.137 26.7527 20.1788 27.3417 19.5899C27.3419 19.5897 27.342 19.5896 27.3422 19.5894L28.1033 18.8282C28.7468 18.1848 27.7489 17.1914 27.1056 17.8351L26.3445 18.5962C25.7764 19.1631 24.7809 19.1649 24.2127 18.5967C23.539 17.9231 23.7589 17.0446 24.2853 16.388L24.9742 15.699C25.6178 15.0556 24.6199 14.0624 23.9765 14.7059L23.2881 15.3944C22.6932 15.9423 21.7518 15.9904 21.1562 15.3949C20.5673 14.8061 20.5673 13.8478 21.1562 13.259L28.4557 5.95934C29.9743 4.44064 32.3101 4.01337 34.2681 4.89603C34.5356 5.01659 34.8499 4.95922 35.057 4.75186L38.6072 1.2016C39.2507 0.558164 38.2529 -0.435117 37.6095 0.208509L34.3896 3.42852C32.0014 2.56338 29.2712 3.15282 27.4578 4.96625L20.1584 12.266C18.2811 14.1417 19.7226 17.3798 22.3768 17.2387C22.175 18.9956 23.7001 20.5865 25.4998 20.4363C25.4379 21.2547 25.7193 22.0944 26.3438 22.719C26.9434 23.3187 27.7837 23.6281 28.6288 23.5654C28.5669 24.3839 28.8482 25.2236 29.4727 25.8482C30.5878 26.9634 32.4819 26.9659 33.5996 25.8482L34.325 25.1227C35.3976 26.192 37.2827 26.2936 38.3847 25.1924Z" fill="#FFC13E"/>
<path d="M47.7929 9.39433C47.5175 9.12014 47.0713 9.12051 46.7964 9.39545L43.2463 12.9457C43.0398 13.1523 42.9826 13.4646 43.1025 13.7307C43.9857 15.6903 43.5584 18.0278 42.039 19.5473C41.3955 20.1907 42.3932 21.1842 43.0367 20.5404C44.8498 18.7272 45.4387 15.9972 44.573 13.61L47.7943 10.3887C48.0691 10.1138 48.0685 9.66862 47.7929 9.39433Z" fill="#FFC13E"/>
<path d="M5.69874 26.7258L4.96541 27.4592C3.15224 29.2724 2.56341 32.0024 3.42904 34.3896L0.207831 37.611C-0.435583 38.2544 0.561953 39.2478 1.20555 38.6041L4.7557 35.0539C4.96222 34.8474 5.01944 34.535 4.89945 34.2689C4.01626 32.3093 4.44358 29.9718 5.96304 28.4523L6.69637 27.719C7.33997 27.0756 6.34206 26.0822 5.69874 26.7258Z" fill="#FFC13E"/>
<path d="M25.8516 33.5964C25.8518 33.5962 25.8521 33.5958 25.8524 33.5955C26.988 32.4589 26.9877 30.6103 25.8516 29.4742C25.2519 28.8746 24.4117 28.5652 23.5665 28.6279C23.6285 27.8094 23.3471 26.9697 22.7226 26.3451C22.1233 25.7457 21.2825 25.4355 20.4375 25.4988C20.4994 24.6804 20.2181 23.8406 19.5936 23.216C18.9776 22.6001 18.1063 22.2906 17.2402 22.3755C17.2822 21.5784 16.9994 20.7671 16.3919 20.1595C15.2768 19.0445 13.3828 19.0419 12.2652 20.1595L8.22438 24.2003C7.58087 24.8438 8.5785 25.8368 9.2221 25.1935L13.2628 21.1528C13.8441 20.5713 14.8128 20.5713 15.3941 21.1528C15.9829 21.7416 15.983 22.6995 15.3944 23.2885C15.3943 23.2886 15.3942 23.2887 15.3941 23.2888L14.7051 23.9777C14.0618 24.6211 15.0592 25.6146 15.7028 24.9709L16.3918 24.282C16.9903 23.6848 17.9592 23.5727 18.5958 24.2093C19.1847 24.7982 19.1847 25.7563 18.5958 26.3453L17.8342 27.1069C17.1908 27.7503 18.1885 28.7438 18.832 28.1L19.593 27.3389C20.1612 26.7721 21.1567 26.7702 21.7249 27.3385C22.3138 27.9274 22.3138 28.8855 21.7249 29.4745C21.7247 29.4747 21.7246 29.4747 21.7244 29.4749L20.9633 30.2361C20.3199 30.8795 21.3175 31.873 21.961 31.2292L22.7225 30.4676C23.3039 29.8862 24.2723 29.8861 24.8538 30.4676C25.4428 31.0564 25.4428 32.0146 24.8538 32.6035L23.6296 33.8279C23.6296 33.8279 23.6296 33.8279 23.6295 33.828L20.1641 37.2935C19.5207 37.9369 20.5182 38.9303 21.1618 38.2867L24.1284 35.32C24.6935 35.9777 24.657 36.7896 24.1395 37.4472L19.5462 42.0406C18.0276 43.5592 15.6916 43.9864 13.7338 43.1039C13.4664 42.9834 13.1521 43.0408 12.9448 43.248L9.3947 46.7983C8.75129 47.4417 9.74882 48.4351 10.3924 47.7915L13.6123 44.5715C16.0005 45.4366 18.7307 44.8472 20.5441 43.0337L25.1957 38.3819C26.4378 37.1409 25.9149 35.4697 25.1713 34.2771L25.8516 33.5964Z" fill="#FFC13E"/>
<path d="M8.93471 9.98997C9.57474 10.6392 10.5775 9.65099 9.9392 9.00371L5.47222 4.47427C4.83322 3.82614 3.82864 4.81249 4.46773 5.46053L8.93471 9.98997Z" fill="#FFC13E"/>
<path d="M13.0405 14.0857C13.6709 14.7496 14.6878 13.776 14.0636 13.1187L12.7532 11.7386C12.1266 11.0787 11.1035 12.0458 11.7301 12.7057L13.0405 14.0857Z" fill="#FFC13E"/>
<path d="M6.91378 17.8296L1.86549 16.4364C0.987283 16.194 0.611551 17.5492 1.48967 17.7916L6.53795 19.1849C7.38506 19.4184 7.78288 18.0695 6.91378 17.8296Z" fill="#FFC13E"/>
<path d="M18.0882 7.34401C18.313 8.20859 19.682 7.87422 19.4525 6.99107L18.1377 1.93246C17.909 1.05251 16.5448 1.40545 16.7735 2.2854L18.0882 7.34401Z" fill="#FFC13E"/>
<path d="M37.8649 36.9177C37.2259 36.2694 36.2213 37.2559 36.8604 37.9039L41.3274 42.4335C41.9675 43.0827 42.9703 42.0945 42.3319 41.4472L37.8649 36.9177Z" fill="#FFC13E"/>
<path d="M33.7592 32.8216C33.1326 32.1617 32.1095 33.1288 32.7361 33.7887L34.0465 35.1687C34.6768 35.8326 35.6937 34.859 35.0696 34.2017L33.7592 32.8216Z" fill="#FFC13E"/>
<path d="M45.31 29.116L40.2618 27.7227C39.3836 27.4804 39.0078 28.8355 39.8859 29.078L44.9342 30.4713C45.7813 30.7047 46.1792 29.3559 45.31 29.116Z" fill="#FFC13E"/>
<path d="M28.7114 39.5638C28.4826 38.6839 27.1185 39.0368 27.3472 39.9168L28.6619 44.9754C28.8866 45.8399 30.2557 45.5056 30.0261 44.6224L28.7114 39.5638Z" fill="#FFC13E"/>
</svg>
